
<svg width="210px" height="67px" viewBox="0 0 210 67" version="1.1" xmlns="http://www.w3.org/2000/svg" xmlns:xlink="http://www.w3.org/1999/xlink">
    <!-- Generator: Sketch 48.2 (47327) - http://www.bohemiancoding.com/sketch -->
    <desc>Created with Sketch.</desc>
    <defs></defs>
    <g id="Home-Page" stroke="none" stroke-width="1" fill="none" fill-rule="evenodd">
        <g id="Desktop" transform="translate(-414.000000, -5774.000000)">
            <g id="other-page" transform="translate(0.000000, 700.000000)">
                <g id="available-in-app-stor" transform="translate(217.000000, 4823.000000)">
                    <g id="apple" transform="translate(197.000000, 251.000000)">
                        <rect id="bg" fill="#000000" x="0" y="0" width="210" height="67" rx="12"></rect>
                        <path d="M81.751486,49.1618331 L78.1632684,49.1618331 L76.1977278,43.3251594 L69.3657362,43.3251594 L67.4934166,49.1618331 L64,49.1618331 L70.7687909,29.2911618 L74.9495147,29.2911618 L81.751486,49.1618331 L81.751486,49.1618331 Z M75.6052216,40.8764142 L69.9598224,40.8764142 L71.7057407,35.687762 C72.1639455,34.0378453 72.497329,32.7895825 72.7043112,31.9444668 L72.7675119,31.9444668 C73.2873373,33.9094355 73.639681,35.1576983 73.827703,35.687762 L75.6052216,40.8764142 Z M99.1585283,41.8215701 C99.1585283,44.2583702 98.461741,46.1845173 97.0681664,47.5985183 C95.8199534,48.8572331 94.2699571,49.4858439 92.4197577,49.4858439 C90.4226168,49.4858439 88.9879618,48.8079596 88.1142126,47.4521909 L88.051012,47.4521909 L88.051012,55 L84.6824167,55 L84.6824167,39.5505082 C84.6824167,38.0185494 84.6397562,36.4462758 84.5575954,34.8336875 L87.5201264,34.8336875 L87.7081484,37.1047493 L87.771349,37.1047493 C88.8947408,35.393614 90.5995787,34.5395394 92.8874426,34.5395394 C94.6760214,34.5395394 96.169137,35.2069718 97.3636295,36.5433297 C98.5612821,37.8811807 99.1585283,39.6400965 99.1585283,41.8215701 Z M95.7267324,41.9380348 C95.7267324,40.5434446 95.3949289,39.3937288 94.7281619,38.4888876 C93.9997743,37.5452248 93.021744,37.0733934 91.7956512,37.0733934 C90.9645625,37.0733934 90.2093146,37.3361856 89.5346475,37.8543043 C88.8584004,38.3769023 88.4159958,39.0592661 88.2090136,39.9043818 C88.1047325,40.29857 88.052592,40.6210877 88.052592,40.874921 L88.052592,43.2639407 C88.052592,44.3061506 88.3907155,45.1856085 89.0669626,45.9038075 C89.7432097,46.6220065 90.6216989,46.9803595 91.7024302,46.9803595 C92.9711835,46.9803595 93.9586939,46.5174869 94.6649613,45.5947281 C95.3728087,44.6704761 95.7267324,43.452076 95.7267324,41.9380348 Z M116.597171,41.8215701 C116.597171,44.2583702 115.900384,46.1845173 114.505229,47.5985183 C113.258596,48.8572331 111.7086,49.4858439 109.8584,49.4858439 C107.861259,49.4858439 106.426604,48.8079596 105.554435,47.4521909 L105.491235,47.4521909 L105.491235,55 L102.122639,55 L102.122639,39.5505082 C102.122639,38.0185494 102.079979,36.4462758 101.997818,34.8336875 L104.960349,34.8336875 L105.148371,37.1047493 L105.211572,37.1047493 C106.333383,35.393614 108.038221,34.5395394 110.327665,34.5395394 C112.114664,34.5395394 113.60778,35.2069718 114.805432,36.5433297 C115.998345,37.8811807 116.597171,39.6400965 116.597171,41.8215701 Z M113.165375,41.9380348 C113.165375,40.5434446 112.831992,39.3937288 112.165225,38.4888876 C111.436837,37.5452248 110.461967,37.0733934 109.234294,37.0733934 C108.401625,37.0733934 107.647957,37.3361856 106.97171,37.8543043 C106.295463,38.3769023 105.854638,39.0592661 105.647656,39.9043818 C105.544955,40.29857 105.491235,40.6210877 105.491235,40.874921 L105.491235,43.2639407 C105.491235,44.3061506 105.829358,45.1856085 106.502445,45.9038075 C107.178692,46.6205134 108.057182,46.9803595 109.141073,46.9803595 C110.409826,46.9803595 111.397337,46.5174869 112.103604,45.5947281 C112.811451,44.6704761 113.165375,43.452076 113.165375,41.9380348 Z M136.094575,43.5894447 C136.094575,45.2796761 135.473629,46.6548556 134.226996,47.7164762 C132.857121,48.8766439 130.950041,49.4559812 128.499436,49.4559812 C126.236852,49.4559812 124.422993,49.0438753 123.049959,48.2181703 L123.830487,45.5648653 C125.309382,46.409981 126.932059,46.834032 128.700098,46.834032 C129.968851,46.834032 130.956361,46.5622811 131.665789,46.0217653 C132.372056,45.4812496 132.7244,44.7555849 132.7244,43.8507437 C132.7244,43.0444495 132.433677,42.3650721 131.850651,41.8141044 C131.270785,41.2631367 130.302235,40.7509906 128.94974,40.2776661 C125.268302,38.9801298 123.429163,37.079366 123.429163,34.5798541 C123.429163,32.9463619 124.073809,31.6070177 125.364683,30.5648079 C126.650816,29.5211049 128.366714,29 130.512377,29 C132.425777,29 134.015273,29.315052 135.284027,29.9436628 L134.441878,32.5387354 C133.256866,31.9295354 131.917012,31.6249354 130.417576,31.6249354 C129.232563,31.6249354 128.306674,31.9011658 127.643067,32.4506403 C127.082161,32.9418825 126.800918,33.5406306 126.800918,34.2498708 C126.800918,35.035261 127.121661,35.6847757 127.766308,36.1954287 C128.327214,36.6672601 129.346325,37.1779131 130.82522,37.7288807 C132.634339,38.417217 133.963133,39.222018 134.817922,40.1447769 C135.669551,41.0645495 136.094575,42.2157583 136.094575,43.5894447 Z M147.232112,37.2227072 L143.519073,37.2227072 L143.519073,44.1792339 C143.519073,45.9486016 144.1732,46.8325389 145.484614,46.8325389 C146.0866,46.8325389 146.585885,46.7832654 146.980889,46.6847183 L147.07411,49.1021076 C146.410503,49.3365302 145.536754,49.454488 144.454443,49.454488 C143.124069,49.454488 142.084418,49.0707517 141.33391,48.3047723 C140.586562,47.5372997 140.210518,46.2502154 140.210518,44.4420261 L140.210518,37.2197209 L137.998495,37.2197209 L137.998495,34.8307012 L140.210518,34.8307012 L140.210518,32.2072589 L143.519073,31.2635962 L143.519073,34.8307012 L147.232112,34.8307012 L147.232112,37.2227072 Z M163.985027,41.8798024 C163.985027,44.08218 163.31826,45.8903693 161.987887,47.3043703 C160.592732,48.7601792 158.740953,49.4858439 156.432548,49.4858439 C154.207885,49.4858439 152.436686,48.7885488 151.115793,47.3939585 C149.794899,45.9993683 149.134452,44.2389594 149.134452,42.1172113 C149.134452,39.8969161 149.813859,38.0782749 151.177413,36.6642738 C152.537808,35.2487796 154.373787,34.5410326 156.682191,34.5410326 C158.906854,34.5410326 160.697013,35.2383277 162.047927,36.6344111 C163.340381,37.9886866 163.985027,39.7371504 163.985027,41.8798024 Z M160.490031,41.9828289 C160.490031,40.6614024 160.191408,39.5281112 159.586261,38.5829553 C158.879994,37.4392121 157.870363,36.8688336 156.56211,36.8688336 C155.208036,36.8688336 154.179445,37.4407052 153.473177,38.5829553 C152.868031,39.5296043 152.569408,40.6808132 152.569408,42.0425544 C152.569408,43.3639809 152.868031,44.4972722 153.473177,45.4409349 C154.201565,46.5846781 155.219096,47.1550566 156.532089,47.1550566 C157.818223,47.1550566 158.827853,46.572733 159.556241,45.4110722 C160.177188,44.4479986 160.490031,43.3027623 160.490031,41.9828289 Z M174.934542,37.6333199 C174.601159,37.5750876 174.245655,37.5452248 173.872771,37.5452248 C172.687759,37.5452248 171.771349,37.9677827 171.126702,38.8143915 C170.565796,39.5609602 170.284553,40.504623 170.284553,41.6438868 L170.284553,49.1618331 L166.917538,49.1618331 L166.949139,39.3459484 C166.949139,37.6945386 166.906478,36.1909493 166.822737,34.8351806 L169.756828,34.8351806 L169.880069,37.5765807 L169.97329,37.5765807 C170.328794,36.6344111 170.8897,35.8758973 171.657588,35.307012 C172.408096,34.7948659 173.218644,34.5395394 174.092393,34.5395394 C174.403657,34.5395394 174.6849,34.5604433 174.934542,34.5977718 L174.934542,37.6333199 Z M190,41.319876 C190,41.8902544 189.9605,42.3710446 189.876759,42.7637397 L179.770973,42.7637397 C179.810473,44.1792339 180.298698,45.2617585 181.237228,46.0083271 C182.088857,46.6757595 183.190129,47.0102222 184.542623,47.0102222 C186.038899,47.0102222 187.404033,46.7847585 188.631706,46.3323379 L189.159431,48.5421811 C187.724776,49.1334635 186.030998,49.4276116 184.076518,49.4276116 C181.725453,49.4276116 179.879994,48.7736174 178.53698,47.4671223 C177.197126,46.1606271 176.525619,44.4061908 176.525619,42.2053064 C176.525619,40.0447367 177.149725,38.2455062 178.399518,36.8106013 C179.707772,35.2786424 181.475811,34.512663 183.700474,34.512663 C185.885637,34.512663 187.539914,35.2786424 188.663306,36.8106013 C189.552855,38.0275082 190,39.5325906 190,41.319876 Z M186.787826,40.494171 C186.809947,39.5505082 186.590324,38.7352553 186.133699,38.046919 C185.550673,37.1614885 184.654804,36.7195199 183.449251,36.7195199 C182.34798,36.7195199 181.45211,37.1510366 180.767963,38.0170562 C180.207057,38.7053925 179.873674,39.5310975 179.770973,40.4926779 L186.787826,40.4926779 L186.787826,40.494171 Z" id="app-store" fill="#FFFFFF"></path>
                        <path d="M74.4563336,16.9441581 C74.4563336,18.6294387 73.9008655,19.8980527 72.7915028,20.75 C71.7639654,21.5360825 70.3036979,21.9298396 68.4122738,21.9298396 C67.4744296,21.9298396 66.6719119,21.8926117 66,21.8181558 L66,12.6099656 C66.8764752,12.4810997 67.8206137,12.4152348 68.8402832,12.4152348 C70.6420142,12.4152348 72,12.771764 72.9158143,13.4848225 C73.9417781,14.2909507 74.4563336,15.4435853 74.4563336,16.9441581 Z M72.7175452,16.9856816 C72.7175452,15.8931844 72.3996853,15.0555556 71.7639654,14.4713631 C71.1282455,13.8886025 70.1998426,13.5965063 68.9771833,13.5965063 C68.4579072,13.5965063 68.0157356,13.6280069 67.6490952,13.6938717 L67.6490952,20.6941581 C67.852085,20.722795 68.2234461,20.7356816 68.7631786,20.7356816 C70.025177,20.7356816 70.9992132,20.4163803 71.6852872,19.7777778 C72.3713611,19.1391753 72.7175452,18.2084765 72.7175452,16.9856816 Z M83.6758458,18.4160939 C83.6758458,19.454181 83.350118,20.3046964 82.6986625,20.9719359 C82.0157356,21.6577892 81.1109363,22 79.9811172,22 C78.8922109,22 78.025177,21.6721077 77.3784422,21.0134593 C76.7332809,20.3562428 76.4107002,19.527205 76.4107002,18.5277778 C76.4107002,17.4825315 76.7427223,16.6248568 77.4099135,15.9590493 C78.0771046,15.2932417 78.9740362,14.959622 80.1038552,14.959622 C81.1927616,14.959622 82.0676633,15.2875143 82.7301338,15.9447308 C83.3595594,16.5833333 83.6758458,17.4080756 83.6758458,18.4160939 Z M81.9653816,18.4647766 C81.9653816,17.8419244 81.8174666,17.3078465 81.5232101,16.862543 C81.177026,16.3241695 80.6845004,16.0549828 80.0440598,16.0549828 C79.3815893,16.0549828 78.8780488,16.3241695 78.5318647,16.862543 C78.2360346,17.3078465 78.0896932,17.8505155 78.0896932,18.4919817 C78.0896932,19.1148339 78.2376082,19.6489118 78.5318647,20.0942153 C78.8890637,20.6325888 79.38631,20.9017755 80.0283242,20.9017755 C80.6577498,20.9017755 81.1518489,20.6282932 81.5074744,20.0798969 C81.8127459,19.6260023 81.9653816,19.0876289 81.9653816,18.4647766 Z M96.0377655,15.097079 L93.7167585,21.8467927 L92.2061369,21.8467927 L91.2446892,18.9158076 C91.0007868,18.1841352 90.8025177,17.4567583 90.6483084,16.7351088 L90.6184107,16.7351088 C90.4752164,17.4768041 90.2769473,18.2027491 90.0220299,18.9158076 L89.0007868,21.8467927 L87.472856,21.8467927 L85.2903226,15.097079 L86.9850511,15.097079 L87.8237608,18.3058419 C88.0267506,19.0647194 88.1935484,19.7878007 88.3273013,20.4722222 L88.3571991,20.4722222 C88.4799371,19.9080756 88.6829268,19.1892898 88.9693155,18.3201604 L90.0220299,15.0985109 L91.3658537,15.0985109 L92.3745083,18.2514318 C92.6184107,19.0203322 92.8166798,19.7605956 92.9693155,20.4736541 L93.0149489,20.4736541 C93.1266719,19.7792096 93.2950433,19.0389462 93.5184894,18.2514318 L94.4185681,15.0985109 L96.0377655,15.0985109 L96.0377655,15.097079 Z M104.586939,21.8467927 L102.937844,21.8467927 L102.937844,17.9808133 C102.937844,16.7895189 102.440598,16.1938717 101.442958,16.1938717 C100.95358,16.1938717 100.558615,16.3571019 100.25177,16.6849943 C99.9480724,17.0128866 99.7938631,17.3994845 99.7938631,17.8419244 L99.7938631,21.8453608 L98.1447679,21.8453608 L98.1447679,17.0257732 C98.1447679,16.4329897 98.1243116,15.7900916 98.0849725,15.0942153 L99.534225,15.0942153 L99.6113297,16.1494845 L99.656963,16.1494845 C99.8489378,15.8215922 100.135327,15.5509737 100.511408,15.3347652 C100.958301,15.0827606 101.458694,14.9553265 102.006294,14.9553265 C102.698662,14.9553265 103.274587,15.1586483 103.732494,15.5667239 C104.302124,16.0664376 104.586939,16.8124284 104.586939,17.8032646 L104.586939,21.8467927 Z M107.487018,12 L109.13454,12 L109.13454,21.8467927 L107.487018,21.8467927 L107.487018,12 Z M118.84343,18.4160939 C118.84343,19.454181 118.517703,20.3046964 117.866247,20.9719359 C117.18332,21.6577892 116.276947,22 115.148702,22 C114.058222,22 113.191188,21.6721077 112.546027,21.0134593 C111.900865,20.3562428 111.578285,19.527205 111.578285,18.5277778 C111.578285,17.4825315 111.910307,16.6248568 112.577498,15.9590493 C113.244689,15.2932417 114.141621,14.959622 115.269866,14.959622 C116.360346,14.959622 117.233674,15.2875143 117.897718,15.9447308 C118.527144,16.5833333 118.84343,17.4080756 118.84343,18.4160939 Z M117.131393,18.4647766 C117.131393,17.8419244 116.983478,17.3078465 116.689221,16.862543 C116.344611,16.3241695 115.850511,16.0549828 115.211644,16.0549828 C114.5476,16.0549828 114.04406,16.3241695 113.699449,16.862543 C113.403619,17.3078465 113.257278,17.8505155 113.257278,18.4919817 C113.257278,19.1148339 113.405193,19.6489118 113.699449,20.0942153 C114.056648,20.6325888 114.553895,20.9017755 115.195909,20.9017755 C115.825334,20.9017755 116.31786,20.6282932 116.673485,20.0798969 C116.98033,19.6260023 117.131393,19.0876289 117.131393,18.4647766 Z M126.824548,21.8467927 L125.343824,21.8467927 L125.221086,21.0693013 L125.175452,21.0693013 C124.668765,21.6892898 123.946499,22 123.008655,22 C122.308419,22 121.741935,21.7952463 121.3155,21.3886025 C120.928403,21.0191867 120.734854,20.5595647 120.734854,20.0140321 C120.734854,19.1892898 121.11251,18.5607102 121.872541,18.1254296 C122.630999,17.6901489 123.697876,17.4768041 125.071597,17.486827 L125.071597,17.3608247 C125.071597,16.4716495 124.558615,16.0277778 123.531078,16.0277778 C122.799371,16.0277778 122.154209,16.1953036 121.597168,16.5274914 L121.261998,15.5423826 C121.95122,15.1543528 122.802518,14.959622 123.806452,14.959622 C125.745083,14.959622 126.717545,15.8903207 126.717545,17.7517182 L126.717545,20.2373998 C126.717545,20.9117984 126.753737,21.44874 126.824548,21.8467927 Z M125.11251,19.527205 L125.11251,18.4862543 C123.29347,18.4576174 122.38395,18.911512 122.38395,19.8465063 C122.38395,20.19874 122.487805,20.4621993 122.700236,20.6383162 C122.912667,20.814433 123.18332,20.9017755 123.505901,20.9017755 C123.867821,20.9017755 124.206137,20.7972509 124.514555,20.5896334 C124.824548,20.3805842 125.014949,20.115693 125.085759,19.7906644 C125.103068,19.7176403 125.11251,19.628866 125.11251,19.527205 Z M136.195122,21.8467927 L134.731707,21.8467927 L134.654603,20.7628866 L134.608969,20.7628866 C134.141621,21.5876289 133.345397,22 132.226593,22 C131.332809,22 130.588513,21.6806987 129.998426,21.0420962 C129.40834,20.4034937 129.114083,19.5744559 129.114083,18.5564147 C129.114083,17.4639175 129.433517,16.5790378 130.075531,15.9032073 C130.697089,15.2731959 131.458694,14.9581901 132.365067,14.9581901 C133.361133,14.9581901 134.058222,15.263173 134.45476,15.8745704 L134.486231,15.8745704 L134.486231,12 L136.1369,12 L136.1369,20.0283505 C136.1369,20.685567 136.155783,21.2912371 136.195122,21.8467927 Z M134.486231,19.0002864 L134.486231,17.8748568 C134.486231,17.680126 134.470496,17.5226231 134.440598,17.4023482 C134.347758,17.0415235 134.147915,16.7379725 133.844217,16.4931271 C133.537372,16.2482818 133.167585,16.1251432 132.741149,16.1251432 C132.125885,16.1251432 131.644375,16.347079 131.290323,16.7923826 C130.939418,17.2376861 130.761605,17.8061283 130.761605,18.5005727 C130.761605,19.1678121 130.929976,19.7090493 131.268293,20.1257159 C131.625492,20.5695876 132.107002,20.7915235 132.709677,20.7915235 C133.250983,20.7915235 133.683714,20.6068156 134.012589,20.2359679 C134.330448,19.8937572 134.486231,19.481386 134.486231,19.0002864 Z M150.298977,18.4160939 C150.298977,19.454181 149.973249,20.3046964 149.321794,20.9719359 C148.638867,21.6577892 147.735641,22 146.604249,22 C145.516916,22 144.649882,21.6721077 144.001574,21.0134593 C143.356412,20.3562428 143.033832,19.527205 143.033832,18.5277778 C143.033832,17.4825315 143.365854,16.6248568 144.033045,15.9590493 C144.700236,15.2932417 145.597168,14.959622 146.72856,14.959622 C147.815893,14.959622 148.692368,15.2875143 149.353265,15.9447308 C149.982691,16.5833333 150.298977,17.4080756 150.298977,18.4160939 Z M148.590087,18.4647766 C148.590087,17.8419244 148.442172,17.3078465 148.147915,16.862543 C147.800157,16.3241695 147.309205,16.0549828 146.667191,16.0549828 C146.006294,16.0549828 145.502754,16.3241695 145.154996,16.862543 C144.859166,17.3078465 144.712825,17.8505155 144.712825,18.4919817 C144.712825,19.1148339 144.86074,19.6489118 145.154996,20.0942153 C145.512195,20.6325888 146.009441,20.9017755 146.651456,20.9017755 C147.280881,20.9017755 147.776554,20.6282932 148.132179,20.0798969 C148.435877,19.6260023 148.590087,19.0876289 148.590087,18.4647766 Z M159.166011,21.8467927 L157.518489,21.8467927 L157.518489,17.9808133 C157.518489,16.7895189 157.021243,16.1938717 156.02203,16.1938717 C155.532651,16.1938717 155.137687,16.3571019 154.832415,16.6849943 C154.527144,17.0128866 154.374508,17.3994845 154.374508,17.8419244 L154.374508,21.8453608 L152.723839,21.8453608 L152.723839,17.0257732 C152.723839,16.4329897 152.704957,15.7900916 152.665618,15.0942153 L154.113297,15.0942153 L154.190401,16.1494845 L154.236035,16.1494845 C154.429583,15.8215922 154.715972,15.5509737 155.09048,15.3347652 C155.538946,15.0827606 156.037766,14.9553265 156.586939,14.9553265 C157.277734,14.9553265 157.853659,15.1586483 158.311566,15.5667239 C158.882769,16.0664376 159.166011,16.8124284 159.166011,17.8032646 L159.166011,21.8467927 Z M170.264359,16.2210767 L168.448466,16.2210767 L168.448466,19.5 C168.448466,20.3333333 168.771046,20.75 169.409913,20.75 C169.705744,20.75 169.95122,20.7270905 170.144768,20.6798396 L170.187254,21.8181558 C169.861526,21.9298396 169.433517,21.9856816 168.906373,21.9856816 C168.254917,21.9856816 167.74823,21.8052692 167.381589,21.4444444 C167.013375,21.0836197 166.830842,20.4765178 166.830842,19.6245704 L166.830842,16.2210767 L165.746656,16.2210767 L165.746656,15.097079 L166.830842,15.097079 L166.830842,13.8599656 L168.446892,13.4160939 L168.446892,15.0956472 L170.262785,15.0956472 L170.262785,16.2210767 L170.264359,16.2210767 Z M178.994493,21.8467927 L177.343824,21.8467927 L177.343824,18.0094502 C177.343824,16.7995418 176.846577,16.1938717 175.850511,16.1938717 C175.085759,16.1938717 174.563336,16.5446735 174.276947,17.2462772 C174.228167,17.3937572 174.199843,17.5741695 174.199843,17.7860825 L174.199843,21.8453608 L172.552321,21.8453608 L172.552321,12 L174.199843,12 L174.199843,16.0678694 L174.231314,16.0678694 C174.75059,15.327606 175.494886,14.9581901 176.459481,14.9581901 C177.142408,14.9581901 177.707317,15.161512 178.155783,15.5695876 C178.714398,16.0778923 178.994493,16.8339061 178.994493,17.8333333 L178.994493,21.8467927 Z M188,18.1526346 C188,18.4218213 187.97797,18.6480527 187.938631,18.8327606 L182.992919,18.8327606 C183.014949,19.5 183.250983,20.0083047 183.708891,20.3605384 C184.127459,20.6755441 184.667191,20.833047 185.328088,20.833047 C186.059795,20.833047 186.726987,20.7270905 187.328088,20.5137457 L187.586153,21.5561283 C186.882769,21.8339061 186.055075,21.972795 185.096774,21.972795 C183.948072,21.972795 183.043273,21.6649485 182.38867,21.0492554 C181.730921,20.4335624 181.405193,19.6073883 181.405193,18.5707331 C181.405193,17.5526919 181.708891,16.7050401 182.321007,16.0292096 C182.959874,15.3075601 183.823761,14.9467354 184.914241,14.9467354 C185.981117,14.9467354 186.791503,15.3075601 187.339103,16.0292096 C187.781275,16.6019473 188,17.3107102 188,18.1526346 Z M186.426436,17.7646048 C186.439024,17.3193013 186.330448,16.935567 186.107002,16.6119702 C185.820614,16.1953036 185.384736,15.9862543 184.79465,15.9862543 C184.256491,15.9862543 183.817467,16.1895762 183.482297,16.5976518 C183.208497,16.9226804 183.04642,17.3107102 182.992919,17.7646048 L186.426436,17.7646048 Z" id="download-on-the" fill="#FFFFFF"></path>
                        <path d="M43.5625612,32.2083255 C43.6150277,37.9623434 48.9348143,39.8644612 49,39.8853144 C48.9682021,40.0193713 48.1668953,42.6305008 46.1715779,45.2818474 C44.5053686,47.6159262 42.7596645,49.8978717 39.9868887,49.9395782 C37.2936076,49.9976695 36.3873678,48.4545262 33.298203,48.4545262 C30.1804201,48.4545262 29.2153542,49.8978717 26.6317758,49.9976695 C23.9909613,50.0885303 21.9733853,47.5057016 20.24676,45.1924762 C16.7950993,40.4692065 14.1081777,31.8821205 17.7108784,26.0387313 C19.4565825,23.1728937 22.639551,21.3273778 26.041925,21.2782236 C28.6859194,21.2275799 31.1391264,22.9509552 32.7639985,22.9509552 C34.3570727,22.9509552 37.3905912,20.8894587 40.5179134,21.1977895 C41.8263965,21.233538 45.5499292,21.6818837 47.9522596,24.9632975 C47.7582925,25.0720325 43.5164543,27.4076007 43.5625612,32.2083255 Z M38.4748991,18.0906496 C37.0249155,19.6933737 34.7052596,20.9192491 32.4460196,20.7613599 C32.1502993,18.5985761 33.2950232,16.2987563 34.5764781,14.895628 C36.0248719,13.3033305 38.5400848,12.0834132 40.5513012,12 C40.8152237,14.2476865 39.8644668,16.4626036 38.4748991,18.0906496 Z" fill="#FFFFFF"></path>
                    </g>
                </g>
            </g>
        </g>
    </g>
</svg>