
<svg width="127px" height="127px" viewBox="0 0 127 127" version="1.1" xmlns="http://www.w3.org/2000/svg" xmlns:xlink="http://www.w3.org/1999/xlink">
    <!-- Generator: Sketch 48.2 (47327) - http://www.bohemiancoding.com/sketch -->
    <desc>Created with Sketch.</desc>
    <defs>
        <circle id="path-1" cx="62.5" cy="62.5" r="62.5"></circle>
    </defs>
    <g id="Home-Page" stroke="none" stroke-width="1" fill="none" fill-rule="evenodd">
        <g id="Desktop" transform="translate(-817.000000, -1620.000000)">
            <g id="other-page" transform="translate(0.000000, 700.000000)">
                <g id="Services" transform="translate(0.000000, 14.000000)">
                    <g id="services-tiles" transform="translate(211.000000, 499.000000)">
                        <g id="service-4-+-service-3-+-service-2-Mask">
                            <g id="Decorating-service" transform="translate(479.000000, 339.000000)">
                                <g id="icons" transform="translate(128.000000, 69.000000)">
                                    <g id="people">
                                        <path d="M16.2302378,19.3208995 C15.5862378,18.7713206 14.7015673,18.9667656 14.2541209,19.7569091 C13.8064951,20.5468325 13.9655673,21.6325646 14.6093879,22.1821435 C15.1328733,22.6287177 15.6603041,23.0667081 16.1902456,23.4980957 C15.8683353,27.2038469 15.671423,30.9615407 15.6052476,34.7610526 C15.6009435,35.0042584 15.7218168,35.2690335 15.9752203,35.4096746 C18.9882651,22.0470048 18.5885224,23.8038086 18.6907446,23.4049952 C18.8372632,22.8345072 19.0399142,22.2992344 19.290807,21.8066603 C18.2576452,21.0068325 17.236499,20.1792727 16.2302378,19.3208995 Z" id="Shape" fill="#FFFFFF" fill-rule="nonzero"></path>
                                        <path d="M74.7363197,43.9709569 C73.3369513,42.6541244 72.6384327,40.6332057 72.7155478,38.6237321 C72.7388616,38.0169282 72.833193,37.4116651 73.0001559,36.8268708 C73.0001559,36.8268708 67.7217232,37.5943445 57.4853333,36.8552632 C52.2978246,36.4806603 41.9705107,33.97311 41.9705107,33.97311 C42.0949708,35.1512823 42.0652008,36.3501435 41.8490994,37.5769569 C41.8670331,37.5826794 41.8847875,37.588622 41.9027212,37.5945646 C42.3928499,40.3244115 42.9591969,43.0544785 43.6014035,45.7803636 L46.2374815,47.2662297 C47.8583314,44.8603636 49.4798986,42.2773206 51.0091072,39.6344115 C51.1771462,40.2480383 51.4542222,41.2301053 51.719462,42.1368995 C53.9158051,39.5983158 57.4198752,39.7972823 59.4132086,42.6457608 C59.7869474,41.8562775 60.1631969,41.0412632 60.323883,40.6884498 C61.6296374,44.1375694 63.0883665,47.5800861 64.6520078,50.9022105 C64.7486706,51.1073397 64.9495283,51.2360957 65.1681404,51.2310335 C65.3867524,51.2264115 65.5840234,51.0892919 65.6745887,50.8797608 C67.0900975,47.6106794 68.4668694,44.0977321 69.7173879,40.4824402 C71.3389552,43.7464593 73.0993294,46.9563349 74.9631813,50.0466986 C75.0783158,50.2379617 75.2910097,50.3376651 75.5094425,50.30311 C75.7278752,50.2687751 75.9131306,50.1054641 75.9852242,49.8851483 C76.3831735,48.6671388 76.7631891,47.4460478 77.129575,46.2229761 L74.7363197,43.9709569 Z" id="Shape" fill="#FFFFFF" fill-rule="nonzero"></path>
                                        <ellipse id="Oval" fill="#FFFFFF" fill-rule="nonzero" cx="91.7398207" cy="31.9803636" rx="5.7362807" ry="7.03998086"></ellipse>
                                        <path d="M105.700865,105.737952 L101.414168,86.5491292 L103.17239,72.4792919 L101.84655,46.0900383 C101.656632,43.2543254 99.6295828,41.1442679 97.3188226,41.3773493 C95.8154386,41.5289952 98.2255517,41.0744976 87.2363041,43.414555 L79.5818324,36.2128038 C78.3241404,35.0293493 76.5078129,35.364555 75.593731,36.9802775 C74.7377544,38.4934354 75.0610994,40.5812632 76.2522573,41.7019904 L84.8132788,49.7566124 C85.4323509,50.3389856 86.2198207,50.5751483 86.9859493,50.4124976 L94.5618713,48.7991962 L86.4179883,53.6690335 L87.7614035,73.7283349 L84.4121014,84.9356077 C84.1956413,85.6601627 84.1499103,86.4450239 84.2801092,87.2001722 L87.8130526,107.674134 C88.1955789,109.890718 89.9697622,111.309895 91.7787368,110.83977 C93.5860975,110.369866 94.7410292,108.191139 94.3581442,105.972794 L91.0246238,86.654555 L95.0150565,73.3017895 L96.3165068,73.1706124 L94.6920702,86.1688038 C94.6208733,86.7388517 94.6483119,87.3205646 94.7724133,87.8767464 L99.2475945,107.909196 C99.7359298,110.095407 101.576109,111.382526 103.358183,110.782986 C105.141154,110.183225 106.18938,107.924603 105.700865,105.737952 Z" id="Shape" fill="#FFFFFF" fill-rule="nonzero"></path>
                                        <path d="M33.4247329,28.6705646 C30.3365458,28.6705646 27.8315634,31.725933 27.7987446,35.5021148 C27.7985653,35.5272057 27.7971306,35.5518565 27.7971306,35.5771675 C27.7973099,39.4204785 30.3465887,42.4837703 33.4247329,42.4837703 C36.5475322,42.4837703 39.1039844,39.3509282 39.0498246,35.4583158 C38.9981754,31.6990813 36.5005458,28.6705646 33.4247329,28.6705646 Z" id="Shape" fill="#FFFFFF" fill-rule="nonzero"></path>
                                        <path d="M57.2466355,44.4941244 C56.1643353,43.2206507 54.4457466,43.2659904 53.4081014,44.5949282 L47.8567173,51.7062201 L39.1979571,46.8258182 C38.9031267,46.6596459 38.2734737,46.4250239 37.7707914,46.4250239 C35.3660585,46.4250239 33.4989786,46.4250239 30.9287173,46.4250239 L30.928538,46.4250239 C28.2965848,42.7324785 26.5457154,40.2762105 24.3212164,37.1552536 L26.7472904,26.3958756 C27.1472125,24.6223445 26.3002027,22.7865263 24.8545653,22.2954928 C23.3924288,21.7989569 21.9085926,22.8725837 21.5135127,24.6183828 L18.6970214,37.1090335 C18.4577856,38.1690144 18.6597193,39.3353014 19.2701832,40.1919139 L26.1664172,49.8673206 L26.1664172,75.0286603 L26.1676725,75.0286603 L26.1676725,106.992498 C26.1676725,109.185751 27.6174347,110.991416 29.4260507,110.991416 C31.2255205,110.991416 32.6844288,109.200938 32.6844288,106.992498 L32.6844288,75.0277799 L34.0909708,75.0277799 L34.0909708,106.991617 C34.0909708,109.192134 35.5464717,110.990536 37.3493489,110.990536 C39.1488187,110.990536 40.6077271,109.200057 40.6077271,106.991617 C40.6077271,65.7974067 40.5487251,55.6648612 40.5487251,54.9215981 L47.3463236,58.7528038 C48.3992125,59.3459617 49.6407641,59.0538947 50.4402495,58.0297895 L57.3289513,49.2054928 C58.3665965,47.8767751 58.3294737,45.7671579 57.2466355,44.4941244 Z" id="Shape" fill="#FFFFFF" fill-rule="nonzero"></path>
                                        <g id="Oval-2">
                                            <use stroke="#FFFFFF" stroke-width="2" xlink:href="#path-1"></use>
                                            <use stroke="#979797" stroke-width="1" xlink:href="#path-1"></use>
                                        </g>
                                    </g>
                                </g>
                            </g>
                        </g>
                    </g>
                </g>
            </g>
        </g>
    </g>
</svg>