
<svg width="31px" height="19px" viewBox="0 0 31 19" version="1.1" xmlns="http://www.w3.org/2000/svg" xmlns:xlink="http://www.w3.org/1999/xlink">
    <!-- Generator: Sketch 48.2 (47327) - http://www.bohemiancoding.com/sketch -->
    <desc>Created with Sketch.</desc>
    <defs></defs>
    <g id="Home-Page" stroke="none" stroke-width="1" fill="none" fill-rule="evenodd">
        <g id="Desktop" transform="translate(-781.000000, -6683.000000)" fill="#FFFFFF">
            <g id="Footer" transform="translate(0.000000, 6466.000000)">
                <g id="social" transform="translate(589.000000, 154.000000)">
                    <g id="Google-+" transform="translate(178.000000, 42.000000)">
                        <path d="M24.2671432,29.1428571 L24.2671432,32.4 L29.6193965,32.4 C29.4036886,33.7978571 28.001587,36.4985714 24.2671432,36.4985714 C21.0450059,36.4985714 18.4160654,33.8114286 18.4160654,30.5 C18.4160654,27.1885714 21.0450059,24.5014286 24.2671432,24.5014286 C26.1006607,24.5014286 27.3274996,25.2885714 28.0285505,25.9671429 L30.5900822,23.4835714 C28.9453092,21.9364286 26.8151933,21 24.2671432,21 C19.0497075,21 14.8299209,25.2478571 14.8299209,30.5 C14.8299209,35.7521429 19.0497075,40 24.2671432,40 C29.7137687,40 33.3268767,36.1457143 33.3268767,30.7171429 C33.3268767,30.0928571 33.259468,29.6178571 33.1785775,29.1428571 L24.2671432,29.1428571 L24.2671432,29.1428571 Z" id="Shape"></path>
                        <polyline id="Shape-Copy" points="44.4897626 29.1428571 41.7934134 29.1428571 41.7934134 26.4285714 39.0970641 26.4285714 39.0970641 29.1428571 36.4007149 29.1428571 36.4007149 31.8571429 39.0970641 31.8571429 39.0970641 34.5714286 41.7934134 34.5714286 41.7934134 31.8571429 44.4897626 31.8571429"></polyline>
                    </g>
                </g>
            </g>
        </g>
    </g>
</svg>