
<svg width="205px" height="66px" viewBox="0 0 205 66" version="1.1" xmlns="http://www.w3.org/2000/svg" xmlns:xlink="http://www.w3.org/1999/xlink">
    <!-- Generator: Sketch 48.2 (47327) - http://www.bohemiancoding.com/sketch -->
    <desc>Created with Sketch.</desc>
    <defs>
        <linearGradient x1="50%" y1="0%" x2="50%" y2="100%" id="linearGradient-1">
            <stop stop-color="#1E79AF" offset="0%"></stop>
            <stop stop-color="#63FFD3" offset="100%"></stop>
        </linearGradient>
        <linearGradient x1="84.7178118%" y1="14.4459862%" x2="5.24419544%" y2="96.5617838%" id="linearGradient-2">
            <stop stop-color="#DC4057" offset="0%"></stop>
            <stop stop-color="#9E36BB" offset="100%"></stop>
        </linearGradient>
        <linearGradient x1="50%" y1="0%" x2="50%" y2="97.8256537%" id="linearGradient-3">
            <stop stop-color="#FF9676" offset="0%"></stop>
            <stop stop-color="#FFD074" offset="100%"></stop>
        </linearGradient>
        <linearGradient x1="17.4435371%" y1="0%" x2="100%" y2="100%" id="linearGradient-4">
            <stop stop-color="#51C6AD" offset="0%"></stop>
            <stop stop-color="#D5FFA1" offset="100%"></stop>
        </linearGradient>
    </defs>
    <g id="Home-Page" stroke="none" stroke-width="1" fill="none" fill-rule="evenodd">
        <g id="Desktop" transform="translate(-673.000000, -5775.000000)">
            <g id="other-page" transform="translate(0.000000, 700.000000)">
                <g id="available-in-app-stor" transform="translate(217.000000, 4823.000000)">
                    <g id="google-play" transform="translate(456.000000, 252.000000)">
                        <rect id="bg" fill="#000000" x="0" y="0" width="205" height="66" rx="12"></rect>
                        <path d="M16.2700767,26.5033336 C15.6981708,26.6786383 15.3280622,27.2460041 15.3280622,28.104393 L15.3315871,55.1203286 C15.3315871,55.9692183 15.6902399,56.5279483 16.246284,56.7144795 L31.6718813,41.5968166 L16.2700767,26.5033336" id="left" fill="url(#linearGradient-1)"></path>
                        <path d="M16.246284,56.7144795 C16.6463538,56.8474694 17.1477628,56.7852923 17.6941136,56.4916784 L36.5185414,46.3464536 L31.6718813,41.5968166 L16.246284,56.7144795" id="bottom" fill="url(#linearGradient-2)"></path>
                        <path d="M36.521185,46.3464536 L42.9399254,42.8878543 C44.2414739,42.1840444 44.2414739,41.0389501 42.9399254,40.3368674 L36.4973923,36.8653145 L31.6718813,41.5942259 L36.521185,46.3464536" id="right" fill="url(#linearGradient-3)"></path>
                        <path d="M36.4965111,36.8653145 L17.6941136,26.7339068 C17.160981,26.4480651 16.6692653,26.3815701 16.2709579,26.5033336 L31.6718813,41.5942259 L36.4965111,36.8653145" id="top" fill="url(#linearGradient-4)"></path>
                        <path d="M71.420192,48.5486876 L67.3895021,49.4259102 C65.7563777,49.6706181 64.2898623,49.8856901 62.7369241,49.8856901 C54.9624324,49.8856901 52,44.4470787 52,40.1905165 C52,34.9923793 56.1972989,30.172735 63.3855409,30.172735 C64.9064046,30.172735 66.3693562,30.3852667 67.702228,30.7307367 C69.8146873,31.2946655 70.8027588,31.9898391 71.420192,32.3971211 L69.0787568,34.5105843 L68.0915763,34.7205758 L68.7954324,33.6545301 C67.8421083,32.7696867 66.0895957,31.1363251 62.7636528,31.1363251 C58.3168859,31.1363251 54.9624324,34.3488569 54.9624324,39.03895 C54.9624324,44.0762066 58.792657,48.8145639 64.9358062,48.8145639 C66.7408853,48.8145639 67.6701536,48.4699407 68.51389,48.1481795 L68.51389,43.8298052 L64.2577879,44.0474174 L66.5136913,42.895851 L72.4866677,42.895851 L71.7560829,43.5639289 C71.5591813,43.723116 71.5324526,43.7773074 71.4772133,43.9906859 C71.4478117,44.234547 71.420192,45.0101609 71.420192,45.2828112 L71.420192,48.5486876 Z M80.663872,49.5402202 C75.8838871,49.5402202 73.331295,46.003387 73.331295,42.8010161 C73.331295,39.0592718 76.5467592,35.8577477 81.1173692,35.8577477 C85.5347345,35.8577477 88.3002654,39.146486 88.3002654,42.599492 C88.3002654,45.9720576 85.5676999,49.5402202 80.663872,49.5402202 Z M84.424602,47.2286198 C85.1462772,46.3141406 85.3262505,45.172735 85.3262505,44.0601185 C85.3262505,41.5436071 84.0610915,36.7442845 80.3359998,36.7442845 C79.3408007,36.7442845 78.3527293,37.1126164 77.631054,37.7138019 C76.4549906,38.7138019 76.2465067,39.9703641 76.2465067,41.2032176 C76.2465067,44.0262489 77.7210407,48.6824725 81.3588186,48.6824725 C82.5322091,48.6824725 83.7305464,48.1414056 84.424602,47.2286198 Z M96.6645707,49.5402202 C91.8854768,49.5402202 89.3284299,46.003387 89.3284299,42.8010161 C89.3284299,39.0592718 92.5430031,35.8577477 97.115395,35.8577477 C101.535433,35.8577477 104.303637,39.146486 104.303637,42.599492 C104.303637,45.9720576 101.567508,49.5402202 96.6645707,49.5402202 Z M100.42441,47.2286198 C101.151431,46.3141406 101.32784,45.172735 101.32784,44.0601185 C101.32784,41.5436071 100.066245,36.7442845 96.3375894,36.7442845 C95.3459542,36.7442845 94.3471912,37.1126164 93.6272979,37.7138019 C92.4530164,38.7138019 92.2436415,39.9703641 92.2436415,41.2032176 C92.2436415,44.0262489 93.7119388,48.6824725 97.3559534,48.6824725 C98.5320168,48.6824725 99.732136,48.1414056 100.42441,47.2286198 Z M115.305175,37.2599492 C115.995667,37.7993226 117.436345,38.9441152 117.436345,41.1151566 C117.436345,43.23116 116.180986,44.2286198 114.914936,45.172735 C114.526479,45.5444539 114.072091,45.9475021 114.072091,46.5707028 C114.072091,47.2032176 114.526479,47.5461473 114.85346,47.8018628 L115.939537,48.5986452 C117.259935,49.657917 118.463618,50.6291279 118.463618,52.6020322 C118.463618,55.2895851 115.726598,58 110.554592,58 C106.197812,58 104.091589,56.0279424 104.091589,53.9136325 C104.091589,52.8848434 104.630618,51.4276037 106.408969,50.4292972 C108.272851,49.3463167 110.797823,49.2015241 112.150296,49.1168501 C111.727982,48.5986452 111.245975,48.0558848 111.245975,47.1701948 C111.245975,46.6858594 111.399219,46.3971211 111.547118,46.0567316 C111.218355,46.0863675 110.886919,46.1168501 110.585775,46.1168501 C107.39704,46.1168501 105.594634,43.8560542 105.594634,41.6282811 C105.594634,40.3141406 106.225431,38.8560542 107.520883,37.7993226 C109.235084,36.4580864 111.27894,36.2269263 112.903155,36.2269263 L119.098871,36.2269263 L117.172621,37.2599492 L115.305175,37.2599492 Z M113.174897,49.9449619 C112.928102,49.9144793 112.780203,49.9144793 112.482623,49.9144793 C112.20999,49.9144793 110.585775,49.9703641 109.327744,50.3717189 C108.662199,50.6028789 106.738623,51.2861981 106.738623,53.315834 C106.738623,55.3412362 108.815444,56.8018628 112.028235,56.8018628 C114.914936,56.8018628 116.447382,55.4868755 116.447382,53.7163421 C116.447382,52.2591025 115.455747,51.4902625 113.174897,49.9449619 Z M114.039125,44.5156647 C114.734072,43.8560542 114.794657,42.9449619 114.794657,42.4276037 C114.794657,40.3725656 113.505442,37.1718882 111.006307,37.1718882 C110.22672,37.1718882 109.382092,37.5436071 108.902757,38.1185436 C108.394021,38.7138019 108.241667,39.4860288 108.241667,40.2286198 C108.241667,42.1422523 109.415949,45.315834 111.998833,45.315834 C112.752583,45.315834 113.563354,44.9678239 114.039125,44.5156647 Z M123.522473,47.0313294 C123.522473,48.1414056 123.730957,48.3141406 124.719028,48.4013548 C125.234001,48.4589331 125.747193,48.4843353 126.255038,48.5419136 L125.143124,49.1710415 L119.844602,49.1710415 C120.539548,48.3141406 120.658936,48.2286198 120.658936,47.657917 L120.658936,47.0203218 L120.647354,30.0313294 L118.307701,30.0313294 L120.56004,29 L124.859799,29 C123.927858,29.5131245 123.648989,29.8255715 123.5296,30.8255715 L123.522473,47.0313294 Z M138.300778,47.2523285 L136.862773,48.5419136 C136.530446,48.7154953 136.199901,48.9170195 135.870247,49.0601185 C134.871484,49.4911092 133.855793,49.599492 132.953254,49.599492 C131.992802,49.599492 130.487084,49.5402202 128.951074,48.4843353 C126.817232,47.0558848 125.8844,44.6003387 125.8844,42.4606266 C125.8844,38.0304826 129.678986,35.8577477 132.774171,35.8577477 C133.855793,35.8577477 134.966817,36.1151566 135.870247,36.657917 C137.372401,37.6020322 137.760858,38.8289585 137.97647,39.4860288 L130.908507,42.1998307 L128.5938,42.3708721 C129.343095,46.003387 131.928653,48.1160034 134.785952,48.1160034 C136.213266,48.1160034 137.272614,47.6731583 138.244648,47.2167655 C138.244648,47.2167655 138.439767,47.1202371 138.300778,47.2523285 Z M134.036657,40.0270957 C134.610434,39.8289585 134.908904,39.657917 134.908904,39.2599492 C134.908904,38.1185436 133.550195,36.8001693 131.928653,36.8001693 C130.727643,36.8001693 128.47263,37.6892464 128.47263,40.7764606 C128.47263,41.2582557 128.533215,41.7713802 128.563508,42.2845047 L134.036657,40.0270957 Z M146.967118,47.3742591 L146.967118,54.6519898 L145.446254,54.6519898 L145.446254,36.1329382 L146.967118,36.1329382 L146.967118,38.2421677 C147.957862,36.8789162 149.768287,35.7984759 151.870946,35.7984759 C155.642367,35.7984759 158.182486,38.5173582 158.182486,42.8213378 C158.182486,47.0965284 155.642367,49.8721423 151.870946,49.8721423 C149.885893,49.8721423 148.107543,48.8992379 146.967118,47.3742591 Z M156.548471,42.8213378 C156.548471,39.5774767 154.769229,37.1033023 151.61435,37.1033023 C149.655136,37.1033023 147.781453,38.5664691 146.967118,39.8425064 L146.967118,45.7705334 C147.781453,47.0491109 149.655136,48.5656224 151.61435,48.5656224 C154.769229,48.5656224 156.548471,46.0702794 156.548471,42.8213378 Z M160.259307,31.019475 L161.77928,31.019475 L161.77928,49.5385267 L160.259307,49.5385267 L160.259307,31.019475 Z M174.40236,49.4987299 C174.300791,49.0338696 174.224169,48.6240474 174.168038,48.2819644 C174.121709,47.9407282 174.09498,47.5918713 174.09498,47.2370872 C173.57377,47.9644369 172.835167,48.5698561 171.891643,49.0465707 C170.947228,49.5266723 170.050035,49.762066 168.819623,49.762066 C167.337961,49.762066 166.187736,49.4157494 165.367164,48.7129551 C164.549265,48.0110076 164.137643,47.0601185 164.137643,45.8569009 C164.137643,44.6553768 164.733694,43.6799323 165.92223,42.9339543 C167.110767,42.1845893 168.646777,41.8120237 170.54808,41.8120237 L174.09498,41.8120237 L174.09498,40.146486 C174.09498,39.1871296 173.75107,38.4326842 173.064143,37.8856901 C172.374542,37.3378493 171.406962,37.0609653 170.152495,37.0609653 C169.005833,37.0609653 168.075674,37.3141406 167.367363,37.8069433 C166.665289,38.3099069 166.311579,38.9331075 166.311579,39.684166 L164.755077,39.684166 L164.723002,39.6121931 C164.666872,38.599492 165.154225,37.7112616 166.190408,36.9441152 C167.222137,36.1778154 168.573719,35.7925487 170.237136,35.7925487 C171.895207,35.7925487 173.236988,36.1718882 174.248224,36.9288738 C175.25857,37.6782388 175.765524,38.7612193 175.765524,40.1769687 L175.765524,46.7900085 C175.765524,47.2650296 175.78958,47.7239627 175.851947,48.1710415 C175.916096,48.618967 176.018556,49.0660457 176.154873,49.4987299 L174.40236,49.4987299 Z M169.005833,48.4453853 C170.297721,48.4453853 171.226098,48.1710415 172.174967,47.6282811 C173.1176,47.0889077 173.759089,46.3852667 174.09498,45.5334462 L174.09498,42.9593565 L170.531151,42.9593565 C169.169769,42.9593565 168.042708,43.2455546 167.156206,43.8230313 C166.267922,44.3988146 165.817988,45.0956816 165.817988,45.9060119 C165.817988,46.6706181 166.103095,47.2819644 166.669743,47.7451312 C167.238174,48.2133785 168.015089,48.4453853 169.005833,48.4453853 Z M178.844672,53.4546994 C179.169872,53.592718 179.724938,53.677392 180.076866,53.677392 C181.007025,53.677392 181.654751,53.315834 182.236546,52.03895 L183.345788,49.6502964 L177.354992,36.1329382 L179.051374,36.1329382 L184.190415,47.8467401 L189.279562,36.1329382 L191,36.1329382 L183.693261,52.4868755 C182.935056,54.1718882 181.742065,54.9822185 180.103595,54.9822185 C179.611786,54.9822185 178.963169,54.8992379 178.583622,54.788315 L178.844672,53.4546994 Z" id="logotype" fill="#FFFFFF"></path>
                        <path d="M52,15.9932194 C52,12.9546153 54.2696463,11 57.0928427,11 C58.9843661,11 60.2205371,11.8977488 60.992235,12.997107 L59.6097232,13.7935991 C59.0861684,13.0694331 58.1690386,12.5061929 57.0928427,12.5061929 C55.1731418,12.5061929 53.7460915,13.9527168 53.7460915,15.9932194 C53.7460915,18.0038875 55.1731418,19.4802459 57.0928427,19.4802459 C58.0826884,19.4802459 58.9552797,19.0318235 59.3915753,18.6123316 L59.3915753,17.121508 L56.4820288,17.121508 L56.4820288,15.6306844 L61.0794941,15.6306844 L61.0794941,19.2343369 C60.1341869,20.2912033 58.7662183,21 57.0928427,21 C54.2696463,21 52,19.0182624 52,15.9932194 Z M63.1846206,20.8119519 L63.1846206,11.1591176 L69.8335844,11.1591176 L69.8335844,12.6508453 L64.8861736,12.6508453 L64.8861736,15.1388663 L69.7317821,15.1388663 L69.7317821,16.6296899 L64.8861736,16.6296899 L64.8861736,19.3211283 L69.8335844,19.3211283 L69.8335844,20.8119519 L63.1846206,20.8119519 Z M74.5437594,20.8119519 L74.5437594,12.6508453 L71.6051265,12.6508453 L71.6051265,11.1591176 L79.1848543,11.1591176 L79.1848543,12.6508453 L76.2462214,12.6508453 L76.2462214,20.8119519 L74.5437594,20.8119519 Z M85.101205,11.1591176 L86.802758,11.1591176 L86.802758,20.8119519 L85.101205,20.8119519 L85.101205,11.1591176 Z M91.5438373,20.8119519 L91.5438373,12.6508453 L88.6052044,12.6508453 L88.6052044,11.1591176 L96.1849322,11.1591176 L96.1849322,12.6508453 L93.2462993,12.6508453 L93.2462993,20.8119519 L91.5438373,20.8119519 Z M101.67953,15.9932194 C101.67953,13.1128289 103.73012,11 106.641484,11 C109.535579,11 111.602529,13.1128289 111.602529,15.9932194 C111.602529,18.8727059 109.535579,20.9855348 106.641484,20.9855348 C103.73012,20.9855348 101.67953,18.8727059 101.67953,15.9932194 Z M109.856438,15.9932194 C109.856438,13.9961125 108.590272,12.5061929 106.641484,12.5061929 C104.676336,12.5061929 103.425622,13.9961125 103.425622,15.9932194 C103.425622,17.9749571 104.676336,19.4802459 106.641484,19.4802459 C108.590272,19.4802459 109.856438,17.9749571 109.856438,15.9932194 Z M120.355711,20.8119519 L115.291955,13.909321 L115.291955,20.8119519 L113.590401,20.8119519 L113.590401,11.1591176 L115.336493,11.1591176 L120.297538,17.845674 L120.297538,11.1591176 L122,11.1591176 L122,20.8119519 L120.355711,20.8119519 Z" id="get-it-on" fill="#FFFFFF"></path>
                    </g>
                </g>
            </g>
        </g>
    </g>
</svg>