
<svg width="33px" height="32px" viewBox="0 0 33 32" version="1.1" xmlns="http://www.w3.org/2000/svg" xmlns:xlink="http://www.w3.org/1999/xlink">
    <!-- Generator: Sketch 48.2 (47327) - http://www.bohemiancoding.com/sketch -->
    <desc>Created with Sketch.</desc>
    <defs></defs>
    <g id="Home-Page" stroke="none" stroke-width="1" fill="none" fill-rule="evenodd">
        <g id="Desktop" transform="translate(-1073.000000, -6676.000000)" fill="#FFFFFF">
            <g id="Footer" transform="translate(0.000000, 6466.000000)">
                <g id="social" transform="translate(589.000000, 154.000000)">
                    <g id="Instagram" transform="translate(471.000000, 42.000000)">
                        <path d="M29.6613248,14 C25.3652167,14 24.8260611,14.0190002 23.1387281,14.0966677 C21.4546906,14.1746685 20.305195,14.444338 19.2993863,14.8400088 C18.2589742,15.2486797 17.3764199,15.795352 16.4971612,16.685028 C15.6172434,17.5743706 15.0767695,18.4670465 14.6714141,19.5190575 C14.279241,20.5367348 14.0122997,21.6997469 13.9365015,23.4024313 C13.8610329,25.1091157 13.8412595,25.6547881 13.8412595,30.0001667 C13.8412595,34.3455453 13.8603738,34.8892176 13.9368311,36.595902 C14.014277,38.2992531 14.2808888,39.4619319 14.6717437,40.4792758 C15.0761104,41.5316201 15.6165843,42.4242961 16.4961725,43.3136387 C17.3751017,44.203648 18.2576559,44.7516537 19.297409,45.1603246 C20.3038768,45.5559954 21.4537019,45.8256649 23.1374098,45.9036657 C24.8247428,45.9813331 25.3635689,46.0003333 29.6593474,46.0003333 C33.955785,46.0003333 34.4932929,45.9813331 36.1806259,45.9036657 C37.8646633,45.8256649 39.0154772,45.5559954 40.021945,45.1603246 C41.0620276,44.7516537 41.9432636,44.203648 42.8221927,43.3136387 C43.7021105,42.4242961 44.2425844,41.5316201 44.6479398,40.4796092 C45.0368173,39.4619319 45.3037587,38.2989198 45.3828524,36.5962354 C45.4586506,34.8895509 45.478424,34.3455453 45.478424,30.0001667 C45.478424,25.6547881 45.4586506,25.1094491 45.3828524,23.4027646 C45.3037587,21.6994135 45.0368173,20.5367348 44.6479398,19.5193908 C44.2425844,18.4670465 43.7021105,17.5743706 42.8221927,16.685028 C41.9422749,15.7950187 41.0623571,15.2483463 40.0209563,14.8400088 C39.0125112,14.444338 37.8623564,14.1746685 36.178319,14.0966677 C34.490986,14.0190002 33.9538077,14 29.6563814,14 L29.6613248,14 Z M28.2422513,16.8833634 C28.6634255,16.8826967 29.1333741,16.8833634 29.6613248,16.8833634 C33.8849302,16.8833634 34.3855276,16.8986969 36.0534168,16.9753643 C37.5957446,17.0466984 38.43282,17.3073678 38.9904308,17.5263701 C39.728639,17.8163731 40.2549419,18.1630434 40.8082685,18.7230492 C41.3619247,19.283055 41.7046642,19.8163939 41.9920381,20.5630684 C42.2085572,21.1264076 42.4666005,21.9730831 42.5367962,23.5330993 C42.6125943,25.2197835 42.6290722,25.7264555 42.6290722,29.9965 C42.6290722,34.2665444 42.6125943,34.7732164 42.5367962,36.4599006 C42.4662709,38.0199169 42.2085572,38.8665924 41.9920381,39.4299316 C41.7053233,40.176606 41.3619247,40.7082782 40.8082685,41.2679507 C40.2546124,41.8279565 39.7289686,42.1746268 38.9904308,42.4646298 C38.4334791,42.6846321 37.5957446,42.9446348 36.0534168,43.0159689 C34.3858572,43.0926364 33.8849302,43.1093032 29.6613248,43.1093032 C25.4373897,43.1093032 24.9367923,43.0926364 23.2692327,43.0159689 C21.7269049,42.9439682 20.8898295,42.6832988 20.3318891,42.4642965 C19.5936809,42.1742935 19.0663894,41.8276232 18.5127332,41.2676174 C17.9590771,40.7076115 17.6163376,40.175606 17.3289636,39.4285982 C17.1124445,38.865259 16.8544012,38.0185835 16.7842055,36.4585673 C16.7084074,34.771883 16.6932478,34.2652111 16.6932478,29.9924999 C16.6932478,25.7197887 16.7084074,25.2157835 16.7842055,23.5290993 C16.8547308,21.969083 17.1124445,21.1224075 17.3289636,20.5584017 C17.6156784,19.8117272 17.9590771,19.2783883 18.5127332,18.7183825 C19.0663894,18.1583766 19.5936809,17.8117064 20.3318891,17.5210367 C20.8895,17.3010344 21.7269049,17.0410317 23.2692327,16.9693643 C24.7285121,16.9026969 25.2940323,16.8826967 28.2422513,16.8793633 L28.2422513,16.8833634 Z M38.1052401,19.5400577 C37.0572481,19.5400577 36.2069905,20.3990667 36.2069905,21.459411 C36.2069905,22.5194221 37.0572481,23.379431 38.1052401,23.379431 C39.1532321,23.379431 40.0034898,22.5194221 40.0034898,21.459411 C40.0034898,20.3994 39.1532321,19.539391 38.1052401,19.539391 L38.1052401,19.5400577 Z M29.6613248,21.7834144 C25.1750622,21.7834144 21.537739,25.4624527 21.537739,30.0001667 C21.537739,34.5378806 25.1750622,38.2152522 29.6613248,38.2152522 C34.1475873,38.2152522 37.7835922,34.5378806 37.7835922,30.0001667 C37.7835922,25.4624527 34.1472578,21.7834144 29.6609952,21.7834144 L29.6613248,21.7834144 Z M29.6613248,24.6667778 C32.5732924,24.6667778 34.9342404,27.0544693 34.9342404,30.0001667 C34.9342404,32.9455307 32.5732924,35.3335556 29.6613248,35.3335556 C26.7490275,35.3335556 24.3884091,32.9455307 24.3884091,30.0001667 C24.3884091,27.0544693 26.7490275,24.6667778 29.6613248,24.6667778 L29.6613248,24.6667778 Z" id="Shape"></path>
                    </g>
                </g>
            </g>
        </g>
    </g>
</svg>