
<svg width="60px" height="61px" viewBox="0 0 60 61" version="1.1" xmlns="http://www.w3.org/2000/svg" xmlns:xlink="http://www.w3.org/1999/xlink">
    <!-- Generator: Sketch 48.2 (47327) - http://www.bohemiancoding.com/sketch -->
    <desc>Created with Sketch.</desc>
    <defs></defs>
    <g id="Home-Page" stroke="none" stroke-width="1" fill="none" fill-rule="evenodd">
        <g id="Desktop" transform="translate(-862.000000, -6662.000000)">
            <g id="Footer" transform="translate(0.000000, 6466.000000)">
                <g id="social" transform="translate(589.000000, 154.000000)">
                    <g id="Pinterest" transform="translate(273.000000, 42.000000)">
                        <path d="M29.6111173,60.3431263 C13.2549412,60.3431263 0.000634329113,46.9199158 0.000634329113,30.3664421 C0.000634329113,13.8129684 13.2549412,0.392968421 29.6111173,0.392968421 C45.9641219,0.392968421 59.2216004,13.8129684 59.2216004,30.3664421 C59.2216004,46.9199158 45.9641219,60.3431263 29.6111173,60.3431263 Z" id="Fill-1892" fill="#FFFFFF"></path>
                        <path d="M29.5755949,3.2025 C14.7544952,3.2025 2.74030177,15.3607632 2.74030177,30.3667632 C2.74030177,41.8732895 9.81307138,51.7039211 19.79424,55.6625 C19.5595382,53.5146579 19.3502096,50.2174474 19.8893894,47.8673421 C20.3746511,45.7483947 23.0356618,34.3670789 23.0356618,34.3670789 C23.0356618,34.3670789 22.2332354,32.7393421 22.2332354,30.3346579 C22.2332354,26.5558684 24.3931261,23.7370263 27.0890248,23.7370263 C29.3757812,23.7370263 30.4826855,25.4771316 30.4826855,27.5639737 C30.4826855,29.8948158 29.0173853,33.3782368 28.259362,36.6080263 C27.6282045,39.3145 29.6009681,41.5169211 32.2334339,41.5169211 C37.0035888,41.5169211 40.6700111,36.4250263 40.6700111,29.0761316 C40.6700111,22.5716053 36.0552668,18.0255 29.4614157,18.0255 C21.8272648,18.0255 17.3457296,23.8237105 17.3457296,29.8145526 C17.3457296,32.1486053 18.2306187,34.6528158 19.3406947,36.0140789 C19.5595382,36.2837632 19.5912547,36.5181316 19.5278218,36.7942368 C19.3248364,37.6514474 18.8712911,39.4975 18.782485,39.8731316 C18.6651342,40.3707632 18.3923726,40.4767105 17.8817377,40.2391316 C14.53248,38.6595526 12.4391939,33.6960789 12.4391939,29.7150263 C12.4391939,21.1461316 18.5890147,13.2739211 30.1686926,13.2739211 C39.4774724,13.2739211 46.7119959,19.9903421 46.7119959,28.9637632 C46.7119959,38.3256579 40.8793397,45.8607632 32.7884719,45.8607632 C30.0672,45.8607632 27.5108536,44.4288684 26.6354795,42.7401316 C26.6354795,42.7401316 25.2907018,47.9251316 24.9640223,49.1965 C24.358238,51.5562368 22.7216688,54.5131316 21.6306228,56.3174474 C24.1393944,57.1072368 26.8067483,57.5310263 29.5755949,57.5310263 C44.3966946,57.5310263 56.4108881,45.3695526 56.4108881,30.3667632 C56.4108881,15.3607632 44.3966946,3.2025 29.5755949,3.2025" id="Fill-1894" fill="#BD081C"></path>
                    </g>
                </g>
            </g>
        </g>
    </g>
</svg>