<?xml version='1.0' encoding='iso-8859-1'?>
<!DOCTYPE svg PUBLIC '-//W3C//DTD SVG 1.1//EN' 'http://www.w3.org/Graphics/SVG/1.1/DTD/svg11.dtd'>
<svg version="1.1" xmlns="http://www.w3.org/2000/svg" viewBox="0 0 443.727 443.727" xmlns:xlink="http://www.w3.org/1999/xlink" enable-background="new 0 0 443.727 443.727">
  <path d="m443.727,204.762c0-16.075-11.975-39.048-69.021-57.202-27.504-8.752-61.01-14.859-97.485-17.932 1.518-6.089 4.24-11.962 8.175-17.273 18.072-24.395 18.091-57.166 0.054-81.577-3.188-4.398-9.321-5.448-13.802-2.331-4.533,3.154-5.648,9.392-2.494,13.925 0.057,0.081 0.114,0.162 0.174,0.242 12.813,17.297 12.812,40.54-0.003,57.837-6.288,8.489-10.385,17.992-12.301,27.804-11.362-0.592-22.943-0.901-34.666-0.91 1.593-5.271 4.101-10.346 7.541-14.99 18.072-24.395 18.091-57.166 0.054-81.577-3.188-4.398-9.321-5.448-13.802-2.331-4.533,3.154-5.648,9.392-2.494,13.925 0.057,0.081 0.114,0.162 0.174,0.242 12.813,17.297 12.812,40.54-0.003,57.837-6.158,8.312-10.214,17.598-12.18,27.193-12.045,0.356-23.884,1.03-35.427,2.008 1.517-6.097 4.241-11.979 8.181-17.297 18.089-24.417 18.09-57.228 0.004-81.646-0.053-0.071-0.115-0.153-0.17-0.222-3.403-4.349-9.686-5.11-14.033-1.706-4.288,3.355-5.09,9.515-1.852,13.856 12.796,17.295 12.788,40.524-0.02,57.813-7.039,9.501-11.326,20.275-12.887,31.329-28.303,3.416-54.305,8.743-76.423,15.781-57.046,18.153-69.021,41.127-69.021,57.202 0,0.262 0.004,0.526 0.01,0.791 0.214,56.502 23.322,109.567 65.137,149.497 41.885,39.997 97.541,62.023 156.716,62.023s114.831-22.027 156.716-62.023c41.815-39.931 64.923-92.995 65.137-149.497 0.007-0.265 0.011-0.529 0.011-0.791zm-368.641-38.143c20.397-6.491 44.361-11.455 70.515-14.721 1.688,10.658 5.93,21.022 12.729,30.201 1.962,2.648 4.982,4.048 8.043,4.048 2.068,0 4.155-0.639 5.944-1.965 4.438-3.287 5.371-9.55 2.083-13.988-4.609-6.222-7.551-13.214-8.844-20.42 11.381-1.008 23.088-1.709 35.02-2.09 1.15,12.129 5.558,24.032 13.251,34.416 1.962,2.648 4.982,4.048 8.043,4.048 2.068,0 4.155-0.639 5.944-1.965 4.438-3.287 5.371-9.55 2.083-13.988-5.125-6.918-8.193-14.787-9.219-22.846 0.395-0.001 0.789-0.005 1.185-0.005 11.603,0 23.051,0.302 34.264,0.887 1.229,11.939 5.62,23.641 13.197,33.868 1.962,2.648 4.982,4.048 8.043,4.048 2.068,0 4.155-0.639 5.944-1.965 4.438-3.287 5.371-9.55 2.083-13.988-4.639-6.262-7.589-13.305-8.869-20.562 34.581,2.964 66.22,8.747 92.115,16.988 33.979,10.813 55.086,25.428 55.086,38.143 0,11.195-16.37,23.863-43.475,34.112-41.057-14.033-98.484-22.051-158.391-22.051-59.902,0-117.328,8.018-158.384,22.052-27.106-10.251-43.476-22.919-43.476-34.114 0-12.715 21.107-27.331 55.086-38.143zm269.346,82.892c-35.265,8.224-77.79,12.669-122.568,12.669-44.78,0-87.306-4.445-122.572-12.67 35.188-8.168 78.074-12.688 122.569-12.688 44.498,0.001 87.382,4.521 122.571,12.689zm-122.569,147.563c-98.231,0-180.29-67.195-198.217-155.868 10.383,7.178 25.004,14.275 45.375,20.758 40.971,13.038 95.251,20.217 152.843,20.217s111.872-7.18 152.843-20.217c20.369-6.482 34.989-13.578 45.372-20.756-17.929,88.672-99.986,155.866-198.216,155.866z"/>
</svg>
