<?xml version="1.0" encoding="utf-8"?>
<!-- Svg Vector Icons : http://www.onlinewebfonts.com/icon -->
<!DOCTYPE svg PUBLIC "-//W3C//DTD SVG 1.1//EN" "http://www.w3.org/Graphics/SVG/1.1/DTD/svg11.dtd">
<svg version="1.1" xmlns="http://www.w3.org/2000/svg" xmlns:xlink="http://www.w3.org/1999/xlink" x="0px" y="0px" viewBox="0 0 1000 1000" enable-background="new 0 0 1000 1000" xml:space="preserve">
<metadata> Svg Vector Icons : http://www.onlinewebfonts.com/icon </metadata>
<g><path d="M883,91.1c-0.7,0.6-73.3,57.7-116.2,155.9c-1.5,3.5-5,5.8-8.9,5.9l-23.2,0.5c-0.1,0-0.1,0-0.2,0c-2.4,0-4.7-0.8-6.5-2.4l-91.7-77.5c-4-3.4-4.6-9.4-1.2-13.5l21.7-26.4c3.3-4,9.2-4.8,13.4-1.8l61.6,43.2C750.8,149.6,811.6,70.4,850.4,45c4.5-3,10.6-1.8,13.7,2.6l21,30.4C888,82.3,887,88,883,91.1L883,91.1z M793.4,990H202c-49,0-88.7-41.1-88.7-91.9V101.9C113.3,51.1,153,10,202,10h266.2h108.6h9.7c16.3,0,29.6,13.7,29.6,30.6v122.5V255c0,16.9,13.2,30.6,29.6,30.6h147.9h59.1c16.3,0,29.6,13.7,29.6,30.6v29.3v93.2v459.4C882.2,948.9,842.4,990,793.4,990L793.4,990z M793.4,561.2V438.7v-61.3h-207c-32.7,0-59.1-27.4-59.1-61.2V101.9h-59.2H231.5c-16.3,0-29.6,13.7-29.6,30.6v735c0,16.9,13.2,30.6,29.6,30.6h532.3c16.3,0,29.6-13.7,29.6-30.6V561.2L793.4,561.2z M691.3,819.6H282.8c-11,0-20-7.2-20-16v-10.7c0-8.8,9-16,20-16h408.5c11,0,20,7.1,20,16v10.7C711.3,812.4,702.3,819.6,691.3,819.6L691.3,819.6z M691.3,713H282.8c-11,0-20-7.2-20-16v-10.7c0-8.8,9-16,20-16h408.5c11,0,20,7.1,20,16v10.7C711.3,705.9,702.3,713,691.3,713L691.3,713z M691.3,606.5H282.8c-11,0-20-7.1-20-16v-10.7c0-8.8,9-16,20-16h408.5c11,0,20,7.1,20,16v10.7C711.3,599.4,702.3,606.5,691.3,606.5L691.3,606.5z M691.3,500H282.8c-11,0-20-7.2-20-16v-10.7c0-8.8,9-16,20-16h408.5c11,0,20,7.1,20,16V484C711.3,492.8,702.3,500,691.3,500L691.3,500z"/></g>
</svg>