
<svg width="30px" height="24px" viewBox="0 0 30 24" version="1.1" xmlns="http://www.w3.org/2000/svg" xmlns:xlink="http://www.w3.org/1999/xlink">
    <!-- Generator: Sketch 48.2 (47327) - http://www.bohemiancoding.com/sketch -->
    <desc>Created with Sketch.</desc>
    <defs></defs>
    <g id="Home-Page" stroke="none" stroke-width="1" fill="none" fill-rule="evenodd">
        <g id="Desktop" transform="translate(-691.000000, -6680.000000)" fill="#FFFFFF">
            <g id="Footer" transform="translate(0.000000, 6466.000000)">
                <g id="social" transform="translate(589.000000, 154.000000)">
                    <g id="Twitter" transform="translate(88.000000, 42.000000)">
                        <path d="M28.7715327,24.3843758 L28.8337721,25.4224435 L27.7964498,25.2953331 C24.0205965,24.8080769 20.7219116,23.1556426 17.9211414,20.3804004 L16.5518759,19.0033719 L16.1991863,20.0202545 C15.4523143,22.2870554 15.9294825,24.6809665 17.485466,26.2910307 C18.3153238,27.180803 18.1286058,27.3079133 16.697101,26.778287 C16.1991863,26.6088065 15.763511,26.4816962 15.7220181,26.5452514 C15.5767929,26.6935467 16.0747076,28.6213867 16.4688901,29.3840487 C17.0082977,30.4433014 18.1078594,31.4813691 19.3111533,32.0957357 L20.3277291,32.582992 L19.1244352,32.604177 C17.9626343,32.604177 17.9211414,32.6253621 18.04562,33.0702482 C18.460549,34.4472768 20.0995182,35.9090455 21.9252055,36.5445972 L23.2114851,36.9894833 L22.091177,37.6674051 C20.4314614,38.6419176 18.4812954,39.192729 16.5311295,39.2350991 C15.5975394,39.2562842 14.8299209,39.3410244 14.8299209,39.4045796 C14.8299209,39.6164301 17.3609873,40.8027932 18.833985,41.2688644 C23.252978,42.645893 28.5018289,42.0527114 32.4436537,39.7011703 C35.244424,38.027551 38.0451942,34.7014974 39.3522203,31.4813691 C40.0575995,29.7653797 40.7629786,26.6299916 40.7629786,25.1258527 C40.7629786,24.1513402 40.825218,24.0242299 41.987019,22.8590518 C42.6716517,22.1811301 43.3147915,21.4396532 43.4392702,21.2278026 C43.6467347,20.8252866 43.6259882,20.8252866 42.5679195,21.1854325 C40.8044715,21.8209842 40.5555142,21.7362439 41.4268649,20.7829165 C42.0700048,20.1049947 42.8376233,18.8762616 42.8376233,18.5161156 C42.8376233,18.4525605 42.5264266,18.5584857 42.173737,18.7491512 C41.800301,18.9610018 40.9704431,19.2787776 40.3480497,19.4694431 L39.2277416,19.829589 L38.2111658,19.1304822 C37.6510117,18.7491512 36.8626468,18.3254501 36.4477178,18.1983398 C35.3896491,17.901749 33.7714263,17.9441191 32.8170897,18.28308 C30.223784,19.2364075 28.5848147,21.6938738 28.7715327,24.3843758 Z" id="Shape"></path>
                    </g>
                </g>
            </g>
        </g>
    </g>
</svg>