
<svg width="120px" height="93px" viewBox="0 0 120 93" version="1.1" xmlns="http://www.w3.org/2000/svg" xmlns:xlink="http://www.w3.org/1999/xlink">
    <!-- Generator: Sketch 48.2 (47327) - http://www.bohemiancoding.com/sketch -->
    <desc>Created with Sketch.</desc>
    <defs></defs>
    <g id="Home-Page" stroke="none" stroke-width="1" fill="none" fill-rule="evenodd">
        <g id="Desktop" transform="translate(-827.000000, -2401.000000)" fill="#FFFFFF" fill-rule="nonzero">
            <g id="other-page" transform="translate(0.000000, 700.000000)">
                <g id="Gallery" transform="translate(0.000000, 1163.000000)">
                    <g id="background-and-masking" transform="translate(160.000000, 456.000000)">
                        <g id="tiles-icon-and-text" transform="translate(72.000000, 80.000000)">
                            <g id="videos" transform="translate(476.000000, 2.000000)">
                                <g id="icons" transform="translate(119.000000, 0.000000)">
                                    <path d="M117.48,14.5478571 C116.1,8.835 112.02,4.31785714 106.86,2.79 C97.5,0 60,0 60,0 C60,0 22.5,0 13.14,2.79 C7.98,4.31785714 3.9,8.835 2.52,14.5478571 C0,24.9107143 0,46.5 0,46.5 C0,46.5 0,68.0892857 2.52,78.4521429 C3.9,84.165 7.98,88.6821429 13.14,90.21 C22.5,93 60,93 60,93 C60,93 97.5,93 106.86,90.21 C112.02,88.6821429 116.1,84.165 117.48,78.4521429 C120,68.0892857 120,46.5 120,46.5 C120,46.5 120,24.9107143 117.48,14.5478571 Z M48.2142857,67.1666667 L48.2142857,27.125 L79.2857143,47.1458333 L48.2142857,67.1666667 Z" id="Shape"></path>
                                </g>
                            </g>
                        </g>
                    </g>
                </g>
            </g>
        </g>
    </g>
</svg>