
<svg width="127px" height="127px" viewBox="0 0 127 127" version="1.1" xmlns="http://www.w3.org/2000/svg" xmlns:xlink="http://www.w3.org/1999/xlink">
    <!-- Generator: Sketch 48.2 (47327) - http://www.bohemiancoding.com/sketch -->
    <desc>Created with Sketch.</desc>
    <defs>
        <circle id="path-1" cx="62.5" cy="62.5" r="62.5"></circle>
    </defs>
    <g id="Home-Page" stroke="none" stroke-width="1" fill="none" fill-rule="evenodd">
        <g id="Desktop" transform="translate(-338.000000, -1281.000000)">
            <g id="other-page" transform="translate(0.000000, 700.000000)">
                <g id="Services" transform="translate(0.000000, 14.000000)">
                    <g id="services-tiles" transform="translate(211.000000, 499.000000)">
                        <g id="service-4-+-service-3-+-service-2-Mask">
                            <g id="priest-service">
                                <g id="icons" transform="translate(128.000000, 69.000000)">
                                    <g id="Oval-2">
                                        <use stroke="#FFFFFF" stroke-width="2" xlink:href="#path-1"></use>
                                        <use stroke="#979797" stroke-width="1" xlink:href="#path-1"></use>
                                    </g>
                                    <path d="M108.312509,97.5751851 L90.9946787,78.2425048 C91.6564446,74.6102123 93.7427103,63.3521499 94.9093161,59.285878 C97.2084661,51.2685664 95.6797544,43.5102176 90.6041881,37.4388434 L71.0159977,14.0098441 C69.5890649,12.3039738 66.8450882,11.5772675 64.3427857,12.2469773 C63.7767164,12.3981421 63.2621447,12.6137378 62.8035312,12.8761079 C62.3449176,12.6137378 61.830346,12.3981421 61.2642766,12.2469773 C58.7615687,11.5781968 56.0179974,12.3036641 54.5910646,14.0098441 L35.0028742,37.4391532 C29.927308,43.5105273 28.3981907,51.2688762 30.6977462,59.2864975 C31.865974,63.3589647 33.9571056,74.6464547 34.6152221,78.2604711 L17.6651746,97.6008955 C16.456803,98.979655 16.9405571,100.845673 18.7450046,101.76877 C19.4169079,102.112298 20.1772088,102.276783 20.9293999,102.276783 C22.1969736,102.276783 23.4422452,101.809039 24.2005186,100.943559 L33.3829264,90.4664113 L49.1302792,94.4759964 L46.2776302,99.869607 C45.463804,101.407895 46.4365837,103.158991 48.4506716,103.780377 C48.9332092,103.929374 49.4319667,104 49.9226142,104 C51.4780885,104 52.9512476,103.290021 53.5700312,102.120352 L62.8274553,84.618377 L72.2414,102.13584 C72.8658605,103.297455 74.3333427,104 75.8811127,104 C76.3786536,104 76.8843044,103.927205 77.3733299,103.774182 C79.3825519,103.144122 80.3427613,101.388999 79.5179868,99.8541188 L76.6333037,94.4862186 L92.414718,90.4676504 L101.821364,100.96865 C102.583287,101.819262 103.815988,102.276473 105.070586,102.276473 C105.835753,102.276473 106.60903,102.106413 107.288232,101.751423 C109.080109,100.814077 109.539128,98.9443419 108.312509,97.5751851 Z M62.8035312,31.7574621 L68.2781034,42.0571147 C66.2303595,42.1562392 64.3456242,42.7203194 62.8035312,43.613369 C61.2614381,42.7200096 59.3771083,42.1562392 57.328959,42.0571147 L62.8035312,31.7574621 Z M58.7911697,49.4768915 L58.772517,72.6884365 C58.772517,73.3123012 58.802929,73.9364756 58.8580762,74.559411 C58.7704895,75.3378479 58.6338381,76.1131872 58.4379846,76.8789237 L52.0830853,88.8934298 L37.9216188,85.2874672 L41.983856,80.6524686 C42.5187024,80.0419238 42.7425349,79.3028269 42.6123714,78.5751913 C42.4996441,77.9451314 39.8400101,63.0866821 38.3810433,58.0003574 C36.5303695,51.5476638 37.6848104,45.3942022 41.6314819,40.673399 L56.2588608,23.1779289 L55.3448777,29.8183395 L48.8212929,42.3640908 C48.093837,43.762985 47.7134838,45.2529498 47.6992915,46.758093 L47.5642621,61.0279907 C47.5642621,62.7533761 49.4684611,64.1392602 51.7590957,64.0255768 C53.8494164,63.9221156 55.4296259,62.5247703 55.4296259,60.9248393 L55.4296259,48.0476405 L56.6809798,48.0476405 C57.6480826,48.0479503 58.7911697,48.7384142 58.7911697,49.4768915 Z M66.8158926,49.4768915 C66.8158926,48.5630878 67.9585742,48.0476405 68.9260825,48.0476405 L70.1774364,48.0476405 L70.1774364,60.9248393 C70.1774364,62.5247703 71.7576459,63.9221156 73.8479666,64.0255768 C76.1381957,64.1389504 78.0428003,62.7530663 78.0428003,61.0279907 L77.9077708,46.758093 C77.8935785,45.2529498 77.5132253,43.762985 76.7857694,42.3640908 L70.2621847,29.8183395 L69.3482016,23.1779289 L83.9755805,40.673399 C87.9222519,45.3942022 89.0766928,51.5479736 87.226019,58.0003574 C85.7670522,63.0869919 83.1070127,77.9451314 82.9946909,78.5755011 C82.8629054,79.3136687 83.0948479,80.0632975 83.6455085,80.6781791 L87.7949269,85.3103897 L73.6391373,88.9148035 L67.1670503,76.8714894 C66.9720077,76.1085407 66.8361673,75.3359893 66.7489861,74.56065 C66.8041333,73.9374049 66.8345453,73.3129207 66.8345453,72.6887463 L66.8158926,49.4768915 Z" id="Shape" fill="#FFFFFF" fill-rule="nonzero" style="mix-blend-mode: hard-light;"></path>
                                </g>
                            </g>
                        </g>
                    </g>
                </g>
            </g>
        </g>
    </g>
</svg>