
<svg width="33px" height="23px" viewBox="0 0 33 23" version="1.1" xmlns="http://www.w3.org/2000/svg" xmlns:xlink="http://www.w3.org/1999/xlink">
    <!-- Generator: Sketch 48.2 (47327) - http://www.bohemiancoding.com/sketch -->
    <desc>Created with Sketch.</desc>
    <defs></defs>
    <g id="Home-Page" stroke="none" stroke-width="1" fill="none" fill-rule="evenodd">
        <g id="Desktop" transform="translate(-975.000000, -6681.000000)">
            <g id="Footer" transform="translate(0.000000, 6466.000000)">
                <g id="social" transform="translate(589.000000, 154.000000)">
                    <g id="Youtube" transform="translate(373.000000, 42.000000)">
                        <path d="M45.1620524,23.9613454 C45.1620524,23.9613454 44.8526014,21.7080464 43.9044751,20.7157773 C42.7012742,19.4128493 41.35274,19.4067179 40.7348267,19.331097 C36.3076009,19 29.6667624,19 29.6667624,19 L29.6529211,19 C29.6529211,19 23.0120826,19 18.5848568,19.331097 C17.9659548,19.4067179 16.6184093,19.4128493 15.4142198,20.7157773 C14.4660935,21.7080464 14.1576311,23.9613454 14.1576311,23.9613454 C14.1576311,23.9613454 13.8412595,26.6080775 13.8412595,29.2537877 L13.8412595,31.7349713 C13.8412595,34.3817035 14.1576311,37.0274137 14.1576311,37.0274137 C14.1576311,37.0274137 14.4660935,39.2807127 15.4142198,40.2729817 C16.6184093,41.5759097 18.1992789,41.5350335 18.9032058,41.6709468 C21.434179,41.9223353 29.6598417,42 29.6598417,42 C29.6598417,42 36.3076009,41.989781 40.7348267,41.658684 C41.35274,41.5820411 42.7012742,41.5759097 43.9044751,40.2729817 C44.8526014,39.2807127 45.1620524,37.0274137 45.1620524,37.0274137 C45.1620524,37.0274137 45.478424,34.3817035 45.478424,31.7349713 L45.478424,29.2537877 C45.478424,26.6080775 45.1620524,23.9613454 45.1620524,23.9613454 L45.1620524,23.9613454 Z" fill="#D0021B"></path>
                        <polygon id="Path" fill="#FFFFFF" points="26.3933045 34.7414138 26.3923158 25.5534723 34.9402822 30.1632825"></polygon>
                    </g>
                </g>
            </g>
        </g>
    </g>
</svg>