<?xml version="1.0" standalone="no"?>
<!DOCTYPE svg PUBLIC "-//W3C//DTD SVG 20010904//EN"
 "http://www.w3.org/TR/2001/REC-SVG-20010904/DTD/svg10.dtd">
<svg xmlns="http://www.w3.org/2000/svg" version="1.0" viewBox="0 0 862.000000 1234.000000" preserveAspectRatio="xMidYMid meet">

<g transform="translate(0.000000,1234.000000) scale(0.100000,-0.100000)" fill="#000000" stroke="none">
















<path d="M4170 9783 c-1216 -119 -2237 -998 -2529 -2178 -142 -573 -110 -1165 91 -1720 51 -141 179 -401 262 -533 312 -494 776 -893 1303 -1119 356 -153 707 -230 1088 -240 230 -6 370 6 616 51 769 143 1444 596 1885 1266 566 861 626 1984 154 2905 -442 862 -1275 1443 -2240 1560 -113 14 -520 19 -630 8z m650 -87 c440 -62 847 -215 1197 -449 185 -123 271 -194 433 -356 235 -235 390 -452 535 -746 191 -388 272 -712 290 -1165 23 -572 -142 -1161 -462 -1644 -201 -302 -496 -598 -799 -799 -947 -628 -2204 -622 -3139 14 -298 203 -593 501 -781 790 -418 642 -558 1402 -398 2163 82 390 294 832 560 1166 86 108 313 335 424 424 266 213 601 392 924 495 168 54 439 108 626 125 94 8 489 -4 590 -18z"/>
<path d="M4595 9465 c-2 -5 -13 -95 -25 -200 -11 -104 -23 -207 -26 -227 l-6 -38 50 0 50 0 11 78 c6 42 14 98 17 125 4 26 9 45 12 42 4 -3 13 -63 22 -133 l15 -127 50 -7 c33 -5 52 -3 56 4 4 6 26 62 49 125 24 63 45 112 47 109 3 -3 0 -59 -7 -126 -7 -66 -11 -122 -9 -125 3 -2 25 -5 49 -7 l44 -3 29 228 c16 126 26 231 24 234 -9 9 -141 23 -148 16 -3 -5 -28 -61 -54 -126 -27 -65 -51 -114 -55 -110 -4 4 -15 64 -24 132 -9 68 -18 126 -21 129 -11 11 -147 18 -150 7z"/>
<path d="M4166 9459 c-49 -5 -90 -10 -92 -11 -3 -4 38 -462 42 -467 3 -3 234 14 332 26 28 3 52 9 52 13 0 4 -14 23 -30 40 l-31 33 -114 -7 -115 -6 -1 40 c-1 22 -2 46 -3 53 -1 8 24 14 74 19 89 9 124 22 145 54 28 42 20 56 -27 50 -189 -23 -208 -20 -208 36 0 32 2 33 143 49 59 6 110 17 114 22 3 6 -8 23 -26 39 -28 25 -38 28 -99 27 -37 -1 -107 -6 -156 -10z"/>
<path d="M3765 9379 c-93 -27 -175 -51 -181 -53 -8 -3 -9 -17 -1 -49 l10 -44 67 17 67 17 48 -168 c26 -92 51 -173 55 -180 6 -9 19 -9 58 0 l50 13 -19 66 c-10 37 -34 120 -53 185 l-34 117 57 16 c31 9 59 19 63 23 5 4 2 25 -5 48 l-12 40 -170 -48z"/>
<path d="M5156 9155 c-47 -118 -86 -219 -86 -224 0 -8 71 -41 89 -41 5 0 22 32 37 71 28 68 30 70 59 65 93 -18 188 -25 204 -16 24 13 45 46 75 120 30 72 36 61 -74 134 -54 36 -195 106 -213 106 -3 0 -44 -97 -91 -215z m274 14 c0 -6 -7 -26 -15 -45 -10 -24 -20 -34 -29 -31 -8 3 -34 11 -58 17 -72 18 -69 15 -51 57 8 21 19 48 24 60 8 23 8 23 69 -13 33 -20 60 -40 60 -45z"/>
<path d="M3192 9137 c-18 -18 -32 -37 -32 -41 0 -5 29 -54 64 -110 97 -155 107 -179 95 -214 -11 -31 -32 -42 -84 -42 -25 0 -37 10 -75 62 -25 34 -66 95 -92 136 -25 41 -49 76 -52 79 -7 7 -96 -39 -96 -50 0 -15 169 -264 200 -296 38 -37 64 -45 130 -39 90 9 178 89 187 171 4 33 -2 54 -27 102 -34 66 -172 275 -181 275 -3 0 -19 -15 -37 -33z"/>
<path d="M5625 9004 c-49 -75 -107 -162 -127 -194 l-37 -58 138 -91 c76 -50 143 -91 149 -91 13 0 54 69 47 80 -3 5 -45 34 -94 65 l-89 57 75 116 c42 64 89 136 104 158 22 32 26 44 16 52 -17 13 -74 42 -84 42 -4 0 -48 -62 -98 -136z"/>
<path d="M5975 8734 c-75 -75 -148 -152 -162 -171 l-26 -34 113 -107 c155 -147 145 -141 184 -103 l31 32 -99 92 c-106 100 -106 97 -38 131 39 20 34 23 134 -73 l58 -55 30 29 c16 16 30 33 30 37 0 5 -31 39 -70 76 -58 56 -70 73 -70 99 0 18 4 34 9 37 11 7 71 -33 149 -102 l64 -55 31 32 32 33 -125 119 c-69 65 -128 119 -132 119 -4 0 -68 -61 -143 -136z"/>
<path d="M2749 8760 c-39 -11 -88 -47 -166 -121 l-71 -66 168 -168 168 -168 41 32 c109 86 168 183 157 259 -13 94 -105 199 -199 227 -56 17 -60 17 -98 5z m159 -184 c24 -26 42 -55 42 -69 0 -24 -66 -137 -80 -137 -8 0 -222 222 -217 226 1 1 33 20 71 42 l70 41 36 -29 c20 -16 55 -49 78 -74z"/>
<path d="M4270 8634 c-175 -21 -380 -84 -549 -169 -97 -48 -283 -164 -295 -184 -3 -4 46 -37 108 -74 l113 -68 72 45 c154 94 408 184 591 207 235 30 584 -39 850 -170 73 -36 81 -38 55 -15 -45 39 -158 112 -208 133 -43 19 -98 74 -167 167 -27 37 -28 43 -14 55 14 11 52 1 256 -69 133 -45 243 -80 245 -78 2 2 -56 34 -129 70 -225 111 -387 146 -688 151 -113 2 -221 1 -240 -1z"/>
<path d="M2363 8360 l-22 -41 42 -26 c23 -15 78 -48 122 -75 l80 -48 -167 0 -166 0 -27 -46 c-15 -25 -25 -47 -23 -49 29 -26 375 -225 391 -225 2 0 21 13 41 29 l37 30 -53 33 c-29 19 -82 51 -117 73 -80 48 -71 53 91 54 64 1 128 5 141 10 33 13 70 72 54 87 -18 17 -383 234 -393 234 -5 0 -19 -18 -31 -40z"/>
<path d="M4461 8163 l-123 -118 110 -120 c60 -66 106 -121 101 -123 -19 -7 -120 49 -257 141 -83 57 -142 91 -142 82 0 -29 54 -162 92 -228 21 -37 67 -97 101 -134 62 -66 189 -158 234 -169 13 -4 90 -1 171 6 171 14 260 39 366 103 l68 42 -5 77 c-5 75 -6 78 -64 155 -33 43 -72 97 -88 120 l-28 43 -49 -43 c-151 -130 -213 -173 -302 -207 -34 -13 -41 -24 78 123 l87 108 -88 106 c-48 58 -96 116 -106 129 -10 13 -22 24 -26 24 -4 0 -63 -53 -130 -117z"/>
<path d="M6413 8191 c-134 -21 -245 -40 -249 -43 -3 -4 6 -27 21 -52 25 -43 30 -46 59 -41 81 13 77 15 119 -59 42 -75 42 -80 -4 -138 l-22 -26 30 -51 29 -52 145 183 c79 100 150 190 158 201 12 16 11 25 -9 68 -13 27 -26 49 -29 48 -3 -1 -115 -18 -248 -38z m127 -105 c0 -39 -33 -86 -60 -86 -20 0 -70 53 -70 75 0 17 58 44 98 45 30 0 32 -2 32 -34z"/>
<path d="M2122 7900 l-21 -51 22 -8 c12 -5 112 -48 221 -95 110 -47 200 -85 201 -83 15 24 35 101 29 107 -12 11 -405 180 -420 180 -6 0 -21 -23 -32 -50z"/>
<path d="M3110 7913 c-54 -20 -54 -19 -129 -163 -147 -284 -203 -511 -203 -825 0 -307 72 -586 209 -817 26 -43 48 -76 50 -75 1 2 -25 75 -58 163 -128 331 -130 341 -136 492 l-6 137 38 -35 c59 -55 109 -139 175 -298 60 -143 120 -251 160 -287 13 -12 4 18 -31 96 -59 131 -101 255 -126 371 -26 118 -25 438 0 558 34 159 93 308 187 475 22 39 22 41 7 96 -19 63 -55 123 -77 126 -8 1 -35 -6 -60 -14z"/>
<path d="M6735 7806 c-312 -94 -347 -107 -340 -124 3 -9 9 -29 12 -45 3 -15 9 -29 13 -32 3 -2 62 14 130 35 68 22 125 38 127 37 1 -2 -31 -40 -72 -85 -41 -45 -84 -100 -95 -123 -19 -37 -39 -139 -28 -139 10 0 332 99 417 127 l83 29 -24 28 c-35 41 -93 44 -187 12 -41 -14 -81 -26 -88 -26 -8 0 17 35 54 78 38 43 83 98 100 123 29 42 31 48 21 92 -5 26 -10 47 -11 46 -1 0 -51 -15 -112 -33z"/>
<path d="M3855 7815 c-5 -2 -23 -6 -40 -10 -27 -7 -24 -9 33 -21 105 -22 145 -48 296 -195 165 -160 213 -218 267 -326 l39 -78 0 88 c0 139 -47 260 -145 373 -105 123 -213 175 -357 173 -46 0 -87 -2 -93 -4z"/>
<path d="M5984 7705 c3 -11 25 -112 51 -225 25 -113 48 -210 50 -217 4 -13 -217 214 -269 275 -20 24 -36 42 -36 40 0 -1 15 -46 34 -98 19 -52 47 -149 62 -215 26 -111 28 -136 29 -330 0 -197 -2 -217 -29 -329 -41 -173 -103 -311 -212 -475 l-43 -65 105 -63 c58 -35 109 -63 113 -63 10 0 65 83 114 170 51 92 140 320 165 420 34 137 43 223 43 425 0 264 -23 401 -102 600 -39 99 -84 189 -75 150z"/>
<path d="M2040 7657 l0 -53 78 -24 c42 -13 78 -25 80 -26 5 -3 -41 -154 -47 -154 -3 0 -38 9 -76 20 -38 11 -75 20 -82 20 -11 0 -35 -88 -27 -101 4 -8 464 -122 469 -117 1 2 1 26 -2 54 l-5 51 -84 27 c-46 15 -84 32 -84 37 0 5 7 39 16 74 12 45 21 65 32 65 9 0 49 -9 90 -21 41 -11 78 -17 82 -12 4 4 14 27 24 51 12 33 13 44 4 47 -17 6 -456 115 -463 115 -3 0 -5 -24 -5 -53z"/>
<path d="M3452 7584 c-45 -42 -82 -81 -82 -87 0 -6 53 -93 117 -194 116 -182 117 -183 137 -165 12 10 59 53 106 96 49 45 111 90 149 109 59 29 76 32 173 36 l107 3 31 -30 c26 -26 30 -38 30 -83 l0 -53 29 28 30 29 -19 50 c-11 28 -29 60 -40 71 -28 29 -102 34 -281 19 l-154 -12 -45 27 c-31 18 -69 60 -120 129 -41 56 -77 102 -80 102 -3 1 -42 -33 -88 -75z"/>
<path d="M5040 7534 c-83 -38 -198 -165 -247 -274 -14 -30 -42 -99 -64 -154 l-40 -98 32 -50 c18 -27 65 -93 106 -146 40 -53 73 -100 73 -104 0 -4 -37 -19 -82 -33 -64 -21 -96 -26 -141 -22 l-57 5 25 -20 c37 -29 55 -70 86 -196 48 -193 136 -297 298 -352 78 -26 231 -27 311 -1 l55 17 -130 6 c-188 9 -248 30 -340 118 -114 111 -174 236 -158 333 5 35 11 41 67 69 144 72 195 130 312 356 89 172 119 205 200 221 80 15 132 3 188 -43 61 -49 71 -85 71 -236 -1 -118 -2 -130 -34 -209 -30 -75 -43 -94 -110 -158 -100 -97 -188 -142 -292 -150 -102 -8 -163 12 -272 86 -87 60 -88 60 -58 22 44 -55 108 -110 150 -129 29 -14 71 -17 218 -17 179 0 182 0 209 -25 15 -14 44 -61 64 -105 l38 -80 52 55 c112 119 172 214 225 360 23 63 28 96 32 210 6 157 -3 219 -51 335 -70 173 -191 310 -336 382 l-75 38 -145 2 c-113 2 -153 -1 -180 -13z"/>
<path d="M6845 7273 c-229 -18 -293 -24 -310 -29 -19 -5 -20 -11 -14 -113 12 -200 69 -261 244 -261 56 0 82 5 123 26 94 47 117 106 106 277 l-7 107 -51 -2 c-28 -1 -69 -3 -91 -5z m71 -120 c-2 -10 -8 -38 -11 -63 -9 -59 -20 -77 -55 -95 -31 -16 -116 -19 -185 -7 l-40 7 -10 77 -11 77 70 5 c74 7 144 11 209 14 32 2 38 -1 33 -15z"/>
<path d="M3951 7149 c-57 -5 -105 -10 -106 -11 -3 -4 76 -392 80 -396 1 -2 30 4 63 12 84 22 184 21 230 -3 48 -25 97 -77 116 -123 10 -22 16 -67 16 -112 l0 -75 -57 -44 c-135 -103 -128 -100 -276 -100 -262 0 -400 72 -599 312 -40 48 -109 131 -152 184 -44 54 -84 97 -89 97 -13 0 1 -130 23 -216 39 -153 154 -331 317 -492 209 -206 347 -274 563 -275 72 -1 112 4 165 21 152 48 231 117 308 271 38 77 42 92 47 183 3 55 3 142 2 193 l-4 94 -54 25 c-71 33 -144 102 -209 201 -39 59 -74 96 -134 144 -94 74 -106 90 -83 108 20 15 -4 15 -167 2z"/>
<path d="M2302 6945 l-94 -74 -44 34 c-56 43 -101 52 -147 30 -69 -32 -82 -87 -66 -265 6 -63 12 -116 14 -118 4 -4 254 16 362 29 98 12 95 9 108 77 l7 32 -116 0 c-64 0 -116 3 -116 7 0 4 36 43 80 88 44 46 89 102 100 126 19 43 27 109 13 109 -5 -1 -50 -34 -101 -75z m-189 -123 c16 -14 27 -44 42 -119 l7 -33 -66 0 c-75 0 -71 -7 -55 105 11 70 13 75 33 69 11 -3 29 -13 39 -22z"/>
<path d="M6589 6567 c-93 -35 -144 -109 -144 -207 0 -46 5 -62 32 -100 50 -70 82 -105 88 -98 15 14 17 87 5 164 -15 94 -10 106 47 131 62 25 149 -5 196 -69 24 -32 19 -47 -55 -175 -26 -46 -42 -83 -36 -83 6 0 36 8 67 18 81 25 125 71 140 147 15 74 5 123 -38 182 -56 78 -212 124 -302 90z"/>
<path d="M2402 6516 c-31 -20 -32 -23 -26 -68 3 -26 14 -80 24 -120 11 -40 18 -74 16 -75 -1 -2 -24 -7 -49 -12 l-47 -8 -21 71 c-11 39 -27 93 -36 120 l-16 50 -28 -32 c-36 -40 -37 -77 -8 -180 11 -40 18 -76 16 -78 -3 -3 -16 -2 -31 2 -31 7 -56 41 -81 109 -24 67 -48 100 -85 115 -17 7 -32 11 -35 9 -8 -9 80 -346 95 -362 12 -14 450 114 450 131 0 21 -90 336 -98 343 -4 4 -22 -3 -40 -15z"/>
<path d="M6390 6099 c-58 -23 -114 -101 -126 -177 -9 -60 10 -105 63 -146 44 -34 301 -172 308 -164 5 6 45 87 45 93 0 3 -51 30 -114 60 -112 55 -196 115 -196 139 0 8 10 36 23 64 l22 52 173 -85 172 -84 25 49 25 49 -83 43 c-121 65 -250 118 -283 117 -16 0 -40 -5 -54 -10z"/>
<path d="M2470 5940 c-85 -43 -160 -79 -167 -79 -7 -1 -27 26 -45 59 -18 33 -36 60 -40 60 -3 0 -17 -16 -29 -37 -22 -36 -22 -37 -5 -87 10 -28 45 -101 77 -163 l60 -112 44 21 44 21 -30 60 c-17 32 -29 60 -27 62 2 2 74 40 160 85 87 45 160 85 163 90 6 10 -33 100 -43 99 -4 0 -77 -36 -162 -79z"/>
<path d="M5330 5784 c-60 -43 -242 -149 -306 -177 -34 -15 -121 -42 -195 -61 -272 -70 -551 -57 -849 39 -57 19 -105 33 -107 32 -4 -5 169 -104 194 -111 19 -6 197 -195 190 -202 -5 -5 -197 36 -356 76 -90 22 -168 39 -174 37 -16 -5 154 -74 253 -103 165 -48 250 -58 480 -59 216 0 278 6 440 45 122 29 290 100 452 192 l107 61 6 51 c8 63 -7 103 -62 163 l-38 42 -35 -25z"/>
<path d="M2608 5624 c-89 -75 -169 -142 -177 -149 -15 -14 -11 -23 33 -79 16 -19 15 -19 219 153 14 12 11 -2 -14 -70 -62 -164 -72 -253 -35 -305 12 -16 28 -6 197 135 101 84 185 157 187 162 2 4 -12 24 -30 43 l-33 35 -100 -84 c-55 -46 -101 -83 -102 -81 -2 1 19 68 46 147 l48 145 -29 42 c-16 23 -33 42 -38 42 -4 0 -82 -61 -172 -136z"/>
<path d="M6100 5693 c-50 -55 -150 -189 -150 -202 0 -3 15 -18 33 -32 l33 -27 69 83 c39 46 73 84 77 84 4 1 71 -48 149 -109 77 -60 144 -110 147 -110 7 0 63 72 66 83 2 10 -303 250 -354 277 -15 8 -27 0 -70 -47z"/>
<path d="M5812 5388 c-41 -32 -41 -32 -23 -53 10 -11 66 -74 125 -139 l106 -119 -30 -40 c-23 -32 -30 -52 -30 -87 0 -26 3 -49 6 -53 16 -15 294 234 294 263 0 19 -29 80 -37 80 -5 0 -29 -20 -53 -45 -24 -25 -47 -45 -51 -45 -4 0 -62 61 -129 135 -67 74 -125 135 -129 135 -4 0 -26 -14 -49 -32z"/>
<path d="M3023 5393 c-13 -2 -23 -8 -23 -12 0 -4 45 -45 100 -90 55 -46 100 -88 100 -94 0 -7 -11 -29 -24 -49 l-23 -38 -90 70 c-50 39 -93 70 -96 70 -3 0 -16 -15 -31 -34 l-26 -34 95 -79 c52 -43 94 -81 94 -85 1 -13 -47 -21 -84 -14 -20 4 -59 26 -88 50 -29 23 -64 50 -79 60 -23 15 -26 15 -32 1 -3 -9 -6 -32 -6 -50 0 -28 9 -41 58 -82 55 -47 164 -132 189 -146 14 -9 309 362 296 373 -4 4 -45 37 -91 74 -141 113 -164 124 -239 109z"/>
<path d="M5507 5174 c-58 -18 -132 -87 -142 -133 -7 -33 12 -105 48 -176 22 -44 128 -225 132 -225 1 0 23 12 49 26 l47 26 -27 47 c-60 103 -134 256 -134 278 0 16 13 31 41 50 l42 27 46 -50 c25 -28 73 -98 106 -157 33 -58 63 -107 67 -107 4 0 27 13 52 28 l44 28 -58 102 c-77 133 -111 182 -155 220 -41 37 -79 40 -158 16z"/>
<path d="M3444 5091 c-22 -10 -60 -31 -84 -46 l-43 -27 24 -14 c41 -22 100 -26 154 -10 27 8 50 14 50 13 67 -100 68 -106 20 -205 l-34 -72 -52 0 c-51 0 -51 1 -121 75 -38 41 -74 75 -79 75 -5 0 -9 -38 -9 -85 l0 -84 71 -42 c95 -57 152 -62 228 -22 37 19 65 44 87 76 41 59 54 103 54 183 0 82 -36 140 -111 178 -62 31 -99 32 -155 7z"/>
<path d="M5175 5008 c-22 -6 -41 -12 -43 -13 -3 -2 29 -136 44 -187 3 -11 0 -18 -8 -18 -12 0 -176 91 -240 134 l-27 18 -25 -50 -25 -50 69 -41 c38 -23 72 -45 75 -50 3 -5 -4 -33 -15 -61 -26 -66 -26 -120 1 -153 24 -32 85 -50 137 -42 52 9 252 68 252 75 -1 24 -137 444 -145 446 -5 1 -28 -3 -50 -8z m53 -335 c6 -31 8 -60 4 -64 -4 -4 -37 -10 -73 -13 -56 -6 -69 -4 -89 12 -23 19 -23 20 -7 45 13 20 109 69 147 76 3 1 11 -25 18 -56z"/>
<path d="M3965 4898 c13 -45 49 -65 139 -78 47 -7 88 -15 90 -19 3 -4 -7 -87 -20 -185 -14 -98 -24 -180 -22 -182 2 -1 26 -6 54 -9 l51 -7 32 232 c18 128 31 234 29 235 -7 6 -258 35 -307 35 -50 0 -52 -1 -46 -22z"/>
<path d="M4723 4856 c-61 -61 -67 -64 -125 -70 -61 -7 -62 -7 -93 27 -36 39 -74 61 -122 72 -39 8 -43 24 38 -163 31 -73 79 -169 105 -213 42 -69 53 -81 87 -90 21 -5 44 -12 52 -15 26 -10 145 400 145 497 0 32 -21 21 -87 -45z m-85 -152 c14 -4 22 -14 22 -28 0 -31 -30 -116 -41 -116 -16 0 -59 75 -59 103 0 19 7 30 23 37 28 11 27 11 55 4z"/>















































</g>
</svg>